<?xml version="1.0" encoding="UTF-8"?>
<svg id="Layer_1" data-name="Layer 1" xmlns="http://www.w3.org/2000/svg" version="1.1" viewBox="0 0 522 473">
  <defs>
    <style>
      .cls-1 {
        fill: #000;
      }

      .cls-1, .cls-2 {
        stroke-width: 0px;
      }

      .cls-3 {
        isolation: isolate;
      }

      .cls-2 {
        fill: #fff;
      }
    </style>
  </defs>
  <g id="BeerNoter" class="cls-3">
    <g class="cls-3">
      <path class="cls-2" d="M3.8,59.2h140v149c0,9.8-1.8,18.9-5.4,27.4-3.6,8.5-8.8,15.9-15.4,22.2h20.8v86.6c0,21.1-6.2,38-18.7,50.6-12.5,12.6-29.9,18.9-52.3,18.9H3.8V59.2ZM77.6,227.6v-107.4h-7.6v114h3.3c2.8,0,4.3-2.2,4.3-6.6ZM76.4,350.1c.8-1.6,1.2-3.5,1.2-5.7v-48.7h-7.6v56.8h3.3c1.3,0,2.3-.8,3.1-2.4Z"/>
      <path class="cls-2" d="M150.9,59.2h137.6v214.7h-63.9V120.3h-7.6v161.3h71.4v61.5h-71.4v7.6h71.4v63.4h-137.6V59.2Z"/>
      <path class="cls-2" d="M296.1,59.2h137.6v214.7h-63.9V120.3h-7.6v161.3h71.4v61.5h-71.4v7.6h71.4v63.4h-137.6V59.2Z"/>
      <path class="cls-2" d="M441.3,59.2h140v196.3c0,9.8-1.8,18.9-5.4,27.4-3.6,8.5-8.8,15.9-15.4,22.2h21.3v108.8h-66.2v-71h-8v71h-66.2V59.2ZM514.1,279.4c.6-1.4.9-2.9.9-4.5V120.3h-7.6v161.3h4.3c.9,0,1.7-.7,2.4-2.1Z"/>
      <path class="cls-2" d="M589.3,59.2h140v354.8h-66.2V120.3h-7.6v293.7h-66.2V59.2Z"/>
      <path class="cls-2" d="M755.1,78.2c12.5-12.6,29.7-18.9,51.8-18.9h69.5v285.2c0,21.1-6.2,38-18.7,50.6-12.5,12.6-29.9,18.9-52.3,18.9h-69.1V128.8c0-21.1,6.2-38,18.7-50.6ZM809,350.1c.8-1.6,1.2-3.5,1.2-5.7V120.3h-3.3c-1.3,0-2.3.9-3.1,2.6-.8,1.7-1.2,3.7-1.2,5.9v223.7h3.3c1.3,0,2.3-.8,3.1-2.4Z"/>
      <path class="cls-2" d="M883.5,59.2h66.2v24.1h71.4v61.5h-71.4v207.6h4.3c.9,0,1.7-.7,2.4-2.1.6-1.4.9-2.9.9-4.5v-193.5h63.9v193.5c0,19.2-6.5,35.4-19.4,48.5-12.9,13.1-29.5,19.6-49.7,19.6h-68.6V59.2Z"/>
      <path class="cls-2" d="M1028.8,59.2h137.6v214.7h-63.9V120.3h-7.6v161.3h71.4v61.5h-71.4v7.6h71.4v63.4h-137.6V59.2Z"/>
      <path class="cls-2" d="M1174,59.2h140v196.3c0,9.8-1.8,18.9-5.4,27.4-3.6,8.5-8.8,15.9-15.4,22.2h21.3v108.8h-66.2v-71h-8v71h-66.2V59.2ZM1246.8,279.4c.6-1.4.9-2.9.9-4.5V120.3h-7.6v161.3h4.3c.9,0,1.7-.7,2.4-2.1Z"/>
    </g>
  </g>
  <g id="BeerNoter-2" data-name="BeerNoter" class="cls-3">
    <g class="cls-3">
      <path class="cls-1" d="M-237,762.9h81.8v235.1c0,5.4-1,10.5-3.1,15.4-2.1,4.9-5,9.1-8.8,12.5h11.8v52.5c0,12-3.5,21.5-10.4,28.6-6.9,7.1-16.7,10.6-29.3,10.6h-42.1v-354.8ZM-192,1008.8v-211.4h-7.6v215.2h4.7c1.9,0,2.8-1.3,2.8-3.8ZM-192.8,1081.7c.5-.9.7-2,.7-3.3v-31.2h-7.6v35.9h4.7c.9,0,1.7-.5,2.1-1.4Z"/>
      <path class="cls-1" d="M-148.1,762.9h80.9v269.6h-35.9v-235.1h-7.6v242.6h43.5v34.5h-43.5v7.6h43.5v35.5h-80.9v-354.8Z"/>
      <path class="cls-1" d="M-59.6,762.9H21.3v269.6H-14.7v-235.1h-7.6v242.6H21.3v34.5H-22.2v7.6H21.3v35.5H-59.6v-354.8Z"/>
      <path class="cls-1" d="M28.8,762.9h81.8v262c0,5.7-1,11-3.1,15.8-2.1,4.9-5,9.1-8.8,12.5h12.3v64.3h-36.9v-43h-8v43H28.8v-354.8ZM73.1,1038.9c.5-.8.7-1.7.7-2.6v-238.9h-7.6v242.6h5.2c.6,0,1.2-.4,1.7-1.2Z"/>
      <path class="cls-1" d="M118.7,762.9h81.8v354.8h-36.9v-320.2h-7.6v320.2h-37.4v-354.8Z"/>
      <path class="cls-1" d="M218,773.5c6.9-7.1,16.6-10.6,28.9-10.6h42.6v315.5c0,12-3.5,21.5-10.4,28.6-6.9,7.1-16.6,10.6-28.9,10.6h-42.6v-315.5c0-12,3.5-21.5,10.4-28.6ZM251.9,1081.7c.5-.9.7-2,.7-3.3v-281h-5.2c-.6,0-1.2.5-1.7,1.4-.5.9-.7,2.1-.7,3.3v281h4.7c.9,0,1.7-.5,2.1-1.4Z"/>
      <path class="cls-1" d="M296.5,762.9h37.4v15.6h43.5v34.5h-43.5v270.1h5.2c.6,0,1.2-.4,1.7-1.2.5-.8.7-1.7.7-2.6v-258.7h35.9v258.7c0,10.7-3.7,19.8-11.1,27.2-7.4,7.4-16.6,11.1-27.7,11.1h-42.1v-354.8Z"/>
      <path class="cls-1" d="M385,762.9h80.9v269.6h-35.9v-235.1h-7.6v242.6h43.5v34.5h-43.5v7.6h43.5v35.5h-80.9v-354.8Z"/>
      <path class="cls-1" d="M473.4,762.9h81.8v262c0,5.7-1,11-3.1,15.8-2.1,4.9-5,9.1-8.8,12.5h12.3v64.3h-36.9v-43h-8v43h-37.4v-354.8ZM517.7,1038.9c.5-.8.7-1.7.7-2.6v-238.9h-7.6v242.6h5.2c.6,0,1.2-.4,1.7-1.2Z"/>
    </g>
  </g>
</svg>