<svg xmlns="http://www.w3.org/2000/svg" width="1125.031" height="1078.498" viewBox="0 0 1125.031 1078.498">
  <path id="noun-6677237" d="M1158.2,466.31a87.144,87.144,0,0,0-70.688-59.625l-256.5-37.312A49.82,49.82,0,0,1,793.324,342L678.574,109.5a88.6,88.6,0,0,0-32.25-35.625A87.863,87.863,0,0,0,521.45,109.5L406.7,342a49.817,49.817,0,0,1-37.688,27.375l-256.5,37.312a87.523,87.523,0,0,0-48.563,149.25l185.63,180.94a50.267,50.267,0,0,1,14.438,44.438l-43.688,255.37a87.523,87.523,0,0,0,126.938,92.438l229.5-120.74a49.761,49.761,0,0,1,46.5,0l229.5,120.74a88.474,88.474,0,0,0,40.875,10.125A87.676,87.676,0,0,0,979.7,1036.683l-43.688-255.37a50.265,50.265,0,0,1,14.438-44.438l185.63-180.94a87.019,87.019,0,0,0,22.125-89.625Z" transform="translate(-37.501 -60.748)" fill="#6200ea"/>
</svg>
