<svg xmlns="http://www.w3.org/2000/svg" width="1124.97" height="1078.433" viewBox="0 0 1124.97 1078.433">
  <path id="noun-star-6677287" d="M1087.5,406.64,831,369.374A49.947,49.947,0,0,1,793.312,342l-114.75-232.45a87.566,87.566,0,0,0-157.032,0L406.83,342a50.025,50.025,0,0,1-37.688,27.375L112.592,406.64A87.584,87.584,0,0,0,64.076,556.031l185.63,180.94a49.966,49.966,0,0,1,14.391,44.3l-43.828,255.47a87.545,87.545,0,0,0,127.031,92.3l229.45-120.66a49.951,49.951,0,0,1,46.594,0l229.45,120.66a87.545,87.545,0,0,0,127.031-92.3L936,781.268a49.922,49.922,0,0,1,14.391-44.3l185.63-180.94A87.584,87.584,0,0,0,1087.5,406.64Zm22.359,122.48L924.229,710.06a87.534,87.534,0,0,0-25.172,77.484l43.828,255.47a50.039,50.039,0,0,1-72.61,52.735l-229.45-120.66a87.36,87.36,0,0,0-81.468,0l-229.45,120.66a50.039,50.039,0,0,1-72.61-52.735l43.828-255.47a87.534,87.534,0,0,0-25.172-77.484L90.233,529.12a50.052,50.052,0,0,1,27.75-85.359L374.533,406.5a87.439,87.439,0,0,0,65.906-47.906l114.7-232.45a50.1,50.1,0,0,1,89.812,0L759.7,358.589A87.659,87.659,0,0,0,825.607,406.5l256.5,37.266a50.052,50.052,0,0,1,27.75,85.359Z" transform="translate(-37.562 -60.752)" fill="#6200ea"/>
</svg>
