<svg xmlns="http://www.w3.org/2000/svg" width="78" height="69" viewBox="0 0 78 69">
  <g id="Group_28" data-name="Group 28" transform="translate(-235 -119)">
    <path id="Path_917" data-name="Path 917" d="M304,172h4a3.531,3.531,0,1,0,0-7H240a3.531,3.531,0,1,0,0,7h4" fill="none" stroke="#1f1010" stroke-linecap="round" stroke-linejoin="round" stroke-miterlimit="10" stroke-width="2"/>
    <path id="Path_918" data-name="Path 918" d="M248,172c0,4,7,8,26,8s26-5,26-8" fill="none" stroke="#1f1010" stroke-linecap="round" stroke-linejoin="round" stroke-miterlimit="10" stroke-width="2"/>
    <path id="Path_919" data-name="Path 919" d="M253.5,177v4.5a5.5,5.5,0,0,1-11,0V172" fill="none" stroke="#1f1010" stroke-linecap="round" stroke-linejoin="round" stroke-miterlimit="10" stroke-width="2"/>
    <path id="Path_920" data-name="Path 920" d="M294.5,177v4.5a5.5,5.5,0,0,0,11,0V172" fill="none" stroke="#1f1010" stroke-linecap="round" stroke-linejoin="round" stroke-miterlimit="10" stroke-width="2"/>
    <circle id="Ellipse_7" data-name="Ellipse 7" cx="5" cy="5" r="5" transform="translate(245 151)" stroke-width="2" stroke="#1f1010" stroke-linecap="round" stroke-linejoin="round" stroke-miterlimit="10" fill="none"/>
    <circle id="Ellipse_8" data-name="Ellipse 8" cx="5" cy="5" r="5" transform="translate(293 151)" stroke-width="2" stroke="#1f1010" stroke-linecap="round" stroke-linejoin="round" stroke-miterlimit="10" fill="none"/>
    <path id="Path_921" data-name="Path 921" d="M308,165v-7c0-8-4-12-8-12,0,0,0-26-11-26H259c-11,0-11,26-11,26-4,0-8,4-8,12v7" fill="none" stroke="#1f1010" stroke-linecap="round" stroke-linejoin="round" stroke-miterlimit="10" stroke-width="2"/>
    <path id="Path_922" data-name="Path 922" d="M300,143c-3-1-11,2-11,14,0,0,0,8-7.5,8h-15c-7.5,0-7.5-8-7.5-8,0-12-8-15-11-14" fill="none" stroke="#1f1010" stroke-linecap="round" stroke-linejoin="round" stroke-miterlimit="10" stroke-width="2"/>
    <line id="Line_6" data-name="Line 6" y1="19" transform="translate(274 142)" fill="none" stroke="#1f1010" stroke-linecap="round" stroke-miterlimit="10" stroke-width="2"/>
    <path id="Path_923" data-name="Path 923" d="M254,138v2a2,2,0,0,0,2,2h36a2,2,0,0,0,2-2v-2" fill="none" stroke="#1f1010" stroke-linecap="round" stroke-linejoin="round" stroke-miterlimit="10" stroke-width="2"/>
  </g>
</svg>
