<svg xmlns="http://www.w3.org/2000/svg" xmlns:xlink="http://www.w3.org/1999/xlink" width="1557.725" height="1557.724" viewBox="0 0 1557.725 1557.724">
  <defs>
    <clipPath id="clip-path">
      <circle id="Ellipse_3" data-name="Ellipse 3" cx="778.862" cy="778.862" r="778.862" transform="translate(-235.707 -47.641)" fill="none"/>
    </clipPath>
  </defs>
  <g id="Group_17" data-name="Group 17" transform="translate(235.707 47.641)">
    <g id="Group_16" data-name="Group 16" clip-path="url(#clip-path)">
      <g id="Group_15" data-name="Group 15">
        <path id="Path_868" data-name="Path 868" d="M-346.3,50.389,560.491,840.161l4.467-116.852L-126.413-228.317Z" fill="#a3e9ff"/>
        <path id="Path_869" data-name="Path 869" d="M531.61,817.987,228.153-487.694l622.679-49.44L578.173,665.525,531.61,817.987" fill="#a3e9ff"/>
        <path id="Path_870" data-name="Path 870" d="M1093.27-64.139,466.181,717.492s45.54,114.277,56.8,93.988S1636.61-10.837,1636.61-10.837Z" fill="#a3e9ff"/>
        <path id="Path_871" data-name="Path 871" d="M612.843,711.23l931-339.664,40.319,362.548L657.244,783.548Z" fill="#a3e9ff"/>
        <path id="Path_872" data-name="Path 872" d="M593.951,743.566-484.577,397.594l8.744,338.545L567,757.521,365.388,670.247" fill="#a3e9ff"/>
        <path id="Path_873" data-name="Path 873" d="M-40.318,1678.833,503.3,673.89,571.227,725.3,264.466,1860.857Z" fill="#a3e9ff"/>
        <path id="Path_874" data-name="Path 874" d="M512.128,725.3,562.814,1994.74l613.168-119.153L523.147,689.117l-12.032,98.636" fill="#a3e9ff"/>
        <path id="Path_875" data-name="Path 875" d="M1225.945,1347.022,508.786,790.567s97.492-111.274,113.162-94.162,1120.03,472.379,1120.03,472.379Z" fill="#a3e9ff"/>
        <path id="Path_876" data-name="Path 876" d="M425.261,837.518l-692.8,562.856L-382.4,1081.791l953.63-385.779L425.261,837.518" fill="#a3e9ff"/>
      </g>
    </g>
  </g>
</svg>
