<svg xmlns="http://www.w3.org/2000/svg" width="729.722" height="633.119" viewBox="0 0 729.722 633.119">
  <g id="Group_9" data-name="Group 9" transform="translate(-181.98 -84.908)">
    <g id="Group_6" data-name="Group 6">
      <path id="Path_34" data-name="Path 34" d="M382.057,164.9c.285,2.784-1.572,5.688-3.809,7.212,1.132,1.185,2.918,4.178,4.751,5.146-2.1.648-5.433,3.209-7.532,3.858,2.629,3.215,4.268,6.7,3.867,8.484-.814,3.649-7.187,3.842-10.207,5.74-.8,4.848,14.45,17,17.63,19.853,16.221,10.326,39.139,6.025,56.317,18.833,11.239,10.328,20.732,32.694,23.536,47.354,6.868,18.644,5.7,10.268,6.868,18.644,3.591,10.389,8.072,22.42,11.746,34.319s16.152,49.826,19.826,61.725c5.619,18.2,11.806,41.965,16.021,55.613s27.9,84.143,31.625,93.724c0,0,22.107,37.957,26.708,60.3,4.383,21.645,12.051,41.51,17.834,62.723-11.2,3.455-29.023,2.828-41.357,5.1-23.259,4.118-46.571,10.549-70.53,14.883-26.276,4.28-53.9,6.678-79.365,16.072-13.565,5.723-12.483,9.223-26.481,13.545-6.474-11.037-11.669-37.795-11.669-37.795-10.691-29.665-12.055-47.351-22.639-77.049-6.461-18.13-11.691-38.538-17.887-55.135-6.641-17.786-12.137-40.238-19.023-58.81-9.256,13.782-9.174,14.045-15.606,25.807-14.7,4.537-32.381,10.572-39.791,11.71-10.221-1.442-31.068-9.379-44.243-14.8A195.426,195.426,0,0,1,184.013,475s-3.561-35.123-1.256-45.032c7.783-13.9,15.045-20.171,25.307-36.277,8.452-4.91,29.86-10.369,36.4-11.526,6.194,2.685,30.569,10.875,35.953,8.446l.315-2.4h0c-9.927-17.016-8.423-48.381-4.913-65.563,2.339-11.441,12.21-19.807,14.3-23.2,2.927-4.748,10.3-19.088,10.3-19.088,3.034-3.385-1.028-14.857-.974-22.7.049-6.891-1.586-16.071-3.68-19.368-3.473-.076-9.485.63-14.5-3.19-6.576-6.4-4.265-10.086-6.642-17.785-1.883-7.188-4.6-15.827-6.645-21.52-7.493.875-10.087-6.973-11.608-17.115-6.755-4.033-9.036-2.943-10.436-15.176-.49-4.281-.507-8.174-1.167-14.013-.995-8.823-2.308-19.912.238-26.235,11.542-28.664,57.77-46.586,82.178-34.573,11.153,5.488,19.294,14.069,25.066,25.32,3.562,6.565,7.23,18.754,9.838,22.545S376.779,159.914,382.057,164.9Z" fill="#ff6d9a"/>
      <g id="Group_5" data-name="Group 5">
        <path id="Path_35" data-name="Path 35" d="M363.987,164.344c-3.066-7.127-2.516-1.1-5.848-.458a13.258,13.258,0,0,1-8.353-1.31c-7.443-3.3-12.794-10.52-18.994-15.517-8.739-7.046-17.54-13.339-25.486-21.325-8.181-8.221-16.122-16.962-27.272-21.074-.521-.193-.356-1.037.2-.864,16.285,5.074,27.311,18.594,40.023,29.077,7.71,6.358,16.7,11.545,23.386,19.072,3.289,3.7,14.071,12.812,19.1,7.187a.515.515,0,0,1,.723-.03,11.018,11.018,0,0,1,2.83,5.145.164.164,0,0,1-.313.1Z" fill="#fff"/>
        <path id="Path_36" data-name="Path 36" d="M362.136,170c-2.778,3.082-2.874,7.394-7.536,8.212-2.757.484-5.977-1.065-8.062-2.752-7.612-6.158-14.564-13.8-21.483-20.727-16.578-16.593-33.989-34.1-56.063-43.177-.956-.394-.35-2.009.631-1.7,18.8,6.06,33.235,18.345,47.338,31.794,7.1,6.766,14.12,13.6,21.473,20.09,6.708,5.924,14.576,17.048,23.53,8.1a.117.117,0,0,1,.172.158Z" fill="#fff"/>
        <path id="Path_37" data-name="Path 37" d="M364.871,181.957c-5.133,10.946-15.088,9.6-23.784,2.908-11.714-9.022-17.88-22.474-25.794-34.558-1.139-1.738,1.457-3.317,2.678-1.711,6.508,8.571,12.391,17.742,20.054,25.36A52.191,52.191,0,0,0,351.4,183.5c4.506,2.253,8.2-.735,12.245-2.674a.871.871,0,0,1,1.228,1.132Z" fill="#fff"/>
        <path id="Path_38" data-name="Path 38" d="M306.4,138.651c-2.8-2.061-4.931-4.768-7.328-7.257-.482-.5.26-1.3.726-.792,2.341,2.545,4.411,5.3,7.171,7.429.433.333-.139.935-.569.62Z" fill="#fff"/>
        <path id="Path_39" data-name="Path 39" d="M279.248,128.072c-10.576-.65-23.22,5.635-28.843,14.814a1.822,1.822,0,0,1-3.22-1.7c2.686-5.362,9.643-9.016,14.856-11.33,4.469-1.982,12.585-5.387,17.39-2.576.334.2.264.821-.183.793Z" fill="#fff"/>
        <path id="Path_40" data-name="Path 40" d="M259.665,141.743c1.314,4.455,2.5,8.176,1.688,12.833-1.057,6.039-5.309,11.349-3.813,17.723,1.2,5.1-6.847,6-6.758,1.125.1-5.1,2.033-8.555,4.714-12.772,3.826-6.021,5.106-11.609,3.055-18.565a.583.583,0,0,1,1.114-.344Z" fill="#fff"/>
        <path id="Path_41" data-name="Path 41" d="M286.415,145.307c-6.866,5.145-14.252,9.765-20.472,15.673a1.806,1.806,0,0,1-2.915-2.057c4.272-8.3,15.657-9.807,22.632-14.8.74-.53,1.469.645.755,1.181Z" fill="#fff"/>
        <path id="Path_42" data-name="Path 42" d="M295.148,151.877c-6.4,1.4-15.2,6.062-18.7,11.844.18-.3-1.045-1.088-.027-.155.655.6,1.532.891,2.232,1.437,1.932,1.514,4.376,2.334,6.359,3.847,1.874,1.427-.418,4.68-2.376,3.369-2.888-1.935-5.936-2.373-9.1-3.569a4.25,4.25,0,0,1-2.267-6.144c2.04-3.6,6.912-5.282,10.315-7.177a34.939,34.939,0,0,1,13.435-4.184.376.376,0,0,1,.122.732Z" fill="#fff"/>
        <path id="Path_43" data-name="Path 43" d="M295.9,157.835a21.506,21.506,0,0,1-12.9,11.8,1.313,1.313,0,0,1-1.089-2.352c4.818-3.22,9.983-4.476,12.92-10.018.375-.709,1.354-.145,1.073.566Z" fill="#fff"/>
        <path id="Path_44" data-name="Path 44" d="M279.664,188.489a.081.081,0,0,1-.006.026.556.556,0,0,1-.378.407,8.471,8.471,0,0,0-5.1,3.714,1.791,1.791,0,1,1-2.916-2.054c1.863-2.387,5.126-4.274,8.106-2.688a.549.549,0,0,1,.3.477c0,.037-.008.08-.011.118Z" fill="#fff"/>
        <path id="Path_45" data-name="Path 45" d="M320.527,172.01c-2.457,5.883-5.58,11.476-10.84,15.279-5.236,3.786-13.92,2.781-19.915,2.261a1.893,1.893,0,0,1-.115-3.781c5.924-.725,12.337.944,17.939-1.758,5.021-2.422,8.936-8,12.023-12.479a.513.513,0,0,1,.908.478Z" fill="#fff"/>
        <path id="Path_46" data-name="Path 46" d="M293.341,213.732c-3.469-.38-8.312-1.825-10.7,1.37-2.111,2.825-6.427-1.769-3.187-3.8a10,10,0,0,1,6.878-1.712c2.892.464,4.827,1.954,7.281,3.4a.4.4,0,0,1-.274.736Z" fill="#fff"/>
        <path id="Path_47" data-name="Path 47" d="M288.753,201.314a34.59,34.59,0,0,0-5.639-.1,5.768,5.768,0,0,0-4.969,2.844c-1.279,1.784-4.04-.316-3.066-2.165,2.455-4.656,9.828-3.2,13.812-1.966.709.221.7,1.467-.138,1.385Z" fill="#fff"/>
        <path id="Path_48" data-name="Path 48" d="M298.239,198.693c1.4.627,2.3,2.08,3.424,3.081a9.9,9.9,0,0,0,1.957,1.449,8.6,8.6,0,0,1,2.488,1.388,2.616,2.616,0,0,1-1.674,4.5c-3.967.157-8.44-6.141-7.2-9.96a.714.714,0,0,1,1.009-.459Z" fill="#fff"/>
        <path id="Path_49" data-name="Path 49" d="M331.792,199.924c-4.885,9.559-11.137,18.13-19.68,24.724-9.375,7.239-18.4,8.661-29.9,8.215-4.453-.173-6.09-6.855-1.346-8.082,4.143-1.073,8.228-.525,12.461-.593,4.981-.08,10.549-3.543,14.884-5.649,8.88-4.317,15.945-12.141,21.995-19.735.712-.9,2.085.153,1.59,1.12Z" fill="#fff"/>
        <path id="Path_50" data-name="Path 50" d="M383.2,212.353a274.572,274.572,0,0,1-37.32,10.385c-11.017,2.339-22.925,5.157-30.252,14.34-1.441,1.807-4.479-.355-3.292-2.323,5.593-9.286,17.676-12.669,27.554-14.99,14.138-3.324,28.674-6.981,43.1-8.645.739-.086.844,1,.207,1.233Z" fill="#fff"/>
        <path id="Path_51" data-name="Path 51" d="M393.55,276.227c8.52,16.646,4.013,37.033-3.634,53.112-8.04,16.91-22.5,30.124-40.945,34.111-15.809,3.417-34.7,2.214-44.165-12.606-9.017-14.115-8.808-37.4,2.566-50.176,1.868-2.1,5.7.464,4.088,2.883-8.751,13.119-10.259,30.4-1.431,43.955,8.666,13.295,27.74,12.271,41.306,8.824,15.275-3.881,26.407-16.223,34.344-29.228,9.26-15.178,12.644-33.467,7.156-50.544-.135-.419.507-.738.715-.331Z" fill="#fff"/>
        <path id="Path_52" data-name="Path 52" d="M366.832,317.792c1.188,1.833,1.978,4.185.813,6.228-1.333,2.341-4.585,1.943-6.4.48-1.449-1.164.245-3.146,1.764-2.5.652.277,2.014,1.373,2.629.468.785-1.156.576-2.989.273-4.252a.516.516,0,0,1,.925-.427Z" fill="#fff"/>
        <path id="Path_53" data-name="Path 53" d="M397.986,228.729c-4.292,4.532-5.262,9.454-5.27,15.467-.006,5.389,2.4,9.073,4.95,13.539,2.48,4.342-2.891,9.058-6.741,5.659-5.157-4.56-6.736-11.717-5.852-18.334.926-6.941,6.858-12.856,11.434-17.69.891-.94,2.37.419,1.479,1.359Z" fill="#fff"/>
        <path id="Path_54" data-name="Path 54" d="M462.514,287.244c-1.63,5.233-5.231,10.031-8.406,14.42-2.872,3.97-6.469,9.246-11.965,9.024-5.363-.218-9.083-6.152-11.618-10.151-3.35-5.283-5.79-11.227-10.1-15.836-2.367-2.533.43-7.384,3.71-5.263,7.927,5.129,9.776,16.83,16.342,23.421,5.774,5.795,17.383-12.17,19.993-16.377.622-1.005,2.427-.492,2.039.762Z" fill="#fff"/>
        <path id="Path_55" data-name="Path 55" d="M439.564,320.893c.3,4.266.215,8.523.635,12.795.468,4.763,1.186,9.607.9,14.4-.213,3.488-5.7,3.684-5.464.166.58-8.725-.36-19.359,3.141-27.541.176-.41.763-.207.792.184Z" fill="#fff"/>
        <path id="Path_56" data-name="Path 56" d="M479.87,345.484c-10.755-2.356-21.8,5.515-31.807,8.469-14.146,4.176-28.076,4.17-41.143,11.922a1.659,1.659,0,0,1-1.786-2.8c12.261-8.533,27.691-9.494,41.941-12.33,11.3-2.248,21.059-8.9,32.977-6.041a.4.4,0,0,1-.182.775Z" fill="#fff"/>
        <path id="Path_57" data-name="Path 57" d="M406.725,363.835a33.544,33.544,0,0,1-10.692-19.845c-.63-3.572,4.737-4.154,4.7-.781-.068,6.637,2.829,14.709,6.412,20.268a.281.281,0,0,1-.424.358Z" fill="#fff"/>
        <path id="Path_58" data-name="Path 58" d="M407.08,373.473a238.233,238.233,0,0,0-35.94,10.185c-13.053,4.785-24.767,11.709-36.991,18.17-2.159,1.143-4.142-1.843-2.061-3.226,22.16-14.74,48.121-24.84,74.6-27.5,1.351-.136,1.741,2.109.4,2.375Z" fill="#fff"/>
        <path id="Path_59" data-name="Path 59" d="M315.672,368.156c-2.865,5.368-.57,11.815.994,17.276,1.156,4.031,3.968,8.777,4,12.986a2.472,2.472,0,0,1-4.521,1.395c-2.7-3.922-3.3-10.475-4.043-15.078-.916-5.647-.561-12.17,2.372-17.21a.677.677,0,0,1,1.2.631Z" fill="#fff"/>
        <path id="Path_60" data-name="Path 60" d="M308.289,368.48c-6.778,8.021-14.512,19.024-25.566,21.212a2.547,2.547,0,0,1-1.5-4.864,71.724,71.724,0,0,0,25.689-17.611.935.935,0,0,1,1.378,1.263Z" fill="#fff"/>
        <path id="Path_61" data-name="Path 61" d="M319.8,243.933c-2.979,10.842-1.561,25.351-8.232,34.751-1.175,1.652-3.738.01-3.317-1.752,1.266-5.286,3.508-10.3,4.768-15.627,1.418-6,2.606-12.035,4.6-17.881.454-1.341,2.572-.91,2.182.509Z" fill="#fff"/>
        <path id="Path_62" data-name="Path 62" d="M437.1,356.729c-2.547,3.644-3.8,7.986-6.4,11.65a28.12,28.12,0,0,1-10.806,9.218c-5.576,2.794-11.958,4.224-17.881,6.1a182.7,182.7,0,0,0-20.1,8.134c-6.477,2.928-13.258,5.3-19.9,7.828-6.734,2.56-13.418,5.8-20.511,7.185-11.917,2.317-24.662-2.321-36.094-5.175-1.324-.331-.8-2.456.478-2.047,11.93,3.8,24.071,6.006,36.555,3.66,5.658-1.063,11.045-3.982,16.269-6.291q10.619-4.7,21.118-9.653a190.459,190.459,0,0,1,32.554-11.665c10.64-2.842,18.22-10.215,24.425-19.1.12-.169.408-.018.289.155Z" fill="#fff"/>
        <path id="Path_63" data-name="Path 63" d="M467.267,280.5c4.548,5.949,5.319,13.154,6.528,20.356,1.466,8.738,4.354,17.148,6.114,25.832A244,244,0,0,1,484.4,366.16c.824,22.553-1.388,48.508-21.391,62.537-20.549,14.412-48.709,15.134-72.583,19.553-17.033,3.152-34.1,6.975-49.655,14.828-7.2,3.634-13.438,8.362-20.976,11.371a66.5,66.5,0,0,1-22.432,4.724,1.219,1.219,0,0,1-.4-2.374c6.564-1.912,13.274-3.025,19.735-5.328,7.816-2.788,14.271-8.442,21.569-12.3,13.747-7.27,29.049-11.059,44.19-14.135,23.723-4.82,49.144-5.919,71.332-16.364,23.869-11.237,26.755-37.029,26.286-60.744a237.42,237.42,0,0,0-4.326-39.956c-1.428-7.428-3.739-14.817-4.761-22.3-1.15-8.416-1.994-16.676-4.36-24.877a.352.352,0,0,1,.63-.292Z" fill="#fff"/>
        <path id="Path_64" data-name="Path 64" d="M311.161,466.887c-13.276,2.548-25.471,10.168-39.452,9.051-1.23-.1-1.355-1.917-.059-1.962,13.307-.474,26.4-4.764,39.455-7.267.117-.023.174.155.056.178Z" fill="#fff"/>
        <path id="Path_65" data-name="Path 65" d="M308.365,452.173c-6.422,5.691-14.427,6.718-22.643,7.829a101.466,101.466,0,0,0-18.276,4.6c-2.427.789-19.877,5.785-13.922-2.516.506-.709,1.477.122,1.172.826-1.383,3.2,6.153.752,7.678.334,3.731-1.022,7.377-2.34,11.041-3.566,11.407-3.823,23.572-2.956,34.9-7.583a.046.046,0,0,1,.048.076Z" fill="#fff"/>
        <path id="Path_66" data-name="Path 66" d="M303.884,435.755c-8.541,7.291-19.668,8.483-29.569,13.14-7.658,3.6-16.665,8.923-25.369,6.15a2.028,2.028,0,0,1-1.5-2.414,12.235,12.235,0,0,1,4.716-6.244c1.2-.928,2.343.84,1.58,1.879a9.6,9.6,0,0,0-2.384,5.281q-.751-1.207-1.5-2.414c8.219,2.3,17.118-2.627,24.451-5.883,9.515-4.221,20.44-4.342,29.484-9.6.065-.04.152.053.09.107Z" fill="#fff"/>
        <path id="Path_67" data-name="Path 67" d="M304.721,412.48c-4.92,3.555-7.425,9.406-12.227,12.915a51.259,51.259,0,0,1-19.083,8.621,1.5,1.5,0,0,1-.883-2.858c7.171-2.986,14.556-5.473,20.547-10.606,3.766-3.226,6.674-6.732,11.606-8.157a.048.048,0,0,1,.04.085Z" fill="#fff"/>
        <path id="Path_68" data-name="Path 68" d="M298.87,405.865c-9.974,6.979-20.772,12.362-26.115,23.975-.789,1.711-3.459.646-3.038-1.137,1.425-5.989,6.538-11.065,11.128-14.842,5.065-4.168,10.887-8.56,17.558-9.5.858-.119,1.071,1.083.467,1.507Z" fill="#fff"/>
        <path id="Path_69" data-name="Path 69" d="M291.46,405.034c-1.354-2.866-2.552-8.288-6.238-8.733a108.6,108.6,0,0,1-14.033-2.932c-8.446-2.176-17.022-4.047-25.426-6.317-2.138-.576-1.988-4.138.4-4.009,6.839.369,13.577,2.639,20.126,4.51,7.234,2.066,15.153,3.086,22.118,5.822a1.484,1.484,0,0,1,.618,2c-1.511,2.809,1.43,7.41,2.477,9.631.014.027-.026.053-.041.024Z" fill="#fff"/>
        <path id="Path_70" data-name="Path 70" d="M291.161,406.31a40.18,40.18,0,0,0-2.309-3.432c-.859-1.273-1.5-2.728-2.436-3.938-1.482-1.924,2.749-3.326,2.669-.823a12.445,12.445,0,0,0,.744,3.649,21.084,21.084,0,0,0,1.568,4.393c.086.159-.149.312-.236.151Z" fill="#fff"/>
        <path id="Path_71" data-name="Path 71" d="M284.871,398.514c-8.218,3.573-16.082,3.8-24.85,5.347-9.251,1.629-18.068,6.406-26.8,9.694-9.913,3.733-19.282,8.816-28.639,13.737-4.133,2.174-9.167,4.339-12.705,7.417-2.164,1.883-4.1,2.81-6.93,2.432a1.677,1.677,0,0,1-1.255-2.022c2.491-7.049,12.469-8.9,18.388-11.741q14.6-7.016,29.233-13.938c8.176-3.887,16.732-6.443,25.389-9.069,9.109-2.764,18.923-.806,28.152-1.995.083-.011.088.108.021.138Z" fill="#fff"/>
        <path id="Path_72" data-name="Path 72" d="M184.966,436.188" fill="none" stroke="#fff" stroke-miterlimit="10" stroke-width="1"/>
        <path id="Path_73" data-name="Path 73" d="M231.4,393.024c7.335,7.326,9.7,18.219,13.972,27.351,3.627,7.741,9.244,16.094,9.636,24.867.141,3.123-4.839,4.089-5.524.922-1.795-8.316-5.518-15.807-8.931-23.555-4-9.089-8.23-18.838-11.172-28.306a1.246,1.246,0,0,1,2.019-1.279Z" fill="#fff"/>
        <path id="Path_74" data-name="Path 74" d="M244.214,386.911c16.083-1.523,31.689,18.471,32.284,33.273.12,3-4.823,3.984-5.344.888-2.727-16.246-13.944-24.5-27.407-32.138a1.082,1.082,0,0,1,.467-2.023Z" fill="#fff"/>
        <path id="Path_75" data-name="Path 75" d="M218.518,396.6c-.265,4.074-1.561,7.484-3.071,11.233-2.925,7.259-.417,13.924,1.479,21.142,2.946,11.212,3.857,23.238,8.17,34,7.787,19.437,20.317,35.5,35.434,49.705a1.5,1.5,0,0,1-1.708,2.423c-7.97-4.42-14.277-12.878-19.7-19.988-6.975-9.138-13.95-18.689-18.773-29.2-5.158-11.234-7.032-23.887-8.859-36.033-1.022-6.809-2.071-12.317-.119-18.981,1.466-5,4.381-9.705,6.488-14.451a.354.354,0,0,1,.662.153Z" fill="#fff"/>
        <path id="Path_76" data-name="Path 76" d="M261.436,480.885c-8.466,2.981-16.233,7.187-24.452,10.681-9.174,3.9-18.5,8.965-25.645,16.012-2.524,2.486-6.551-1.174-4.061-3.727,14.2-14.573,34.345-21.078,54.013-23.833.516-.073.6.707.145.867Z" fill="#fff"/>
        <path id="Path_77" data-name="Path 77" d="M248.238,442.893c-10.49,5.73-22.1,8.759-32.737,14.187-10.169,5.19-17.816,14.944-28.568,18.991-2.687,1.009-4.153-2.833-2.025-4.368,8.954-6.465,17.844-14.113,27.671-19.2,10.791-5.582,23.613-6.828,34.882-11.3a.938.938,0,0,1,.777,1.681Z" fill="#fff"/>
        <path id="Path_78" data-name="Path 78" d="M192.494,431.94c1.079,8.869.1,17.953,2.441,26.648,1.281,4.764,2.092,8.847,4.394,13.346a139.326,139.326,0,0,0,8.881,14.214c5.61,8.3,12.219,15.883,20.842,21.122,7.152,4.344,15.412,6.255,22.269,11.168,1.337.958-.24,3.068-1.628,2.31-8.259-4.513-17.3-7.152-25.626-11.447-8.412-4.34-14.641-12.967-20.079-20.456a94.2,94.2,0,0,1-14.123-26.918c-1.27-3.945-.851-8.434-.865-12.527-.019-5.795.314-11.607.787-17.377a1.355,1.355,0,0,1,2.707-.083Z" fill="#fff"/>
        <path id="Path_79" data-name="Path 79" d="M268.685,507.8c-4.98-7.912-3.912-18.277-9.381-26.232-1.281-1.862,1.746-3.8,2.953-1.887,4.76,7.537,8.289,18.6,8.365,27.521a1.059,1.059,0,0,1-1.937.6Z" fill="#fff"/>
        <path id="Path_80" data-name="Path 80" d="M291.269,509.767c-2.95-.3-5.651-1.751-8.605-2.29a26.231,26.231,0,0,0-11.439.918c-6.921,1.878-12.932,5.778-18.918,9.564-2.737,1.73-5.33-2.389-2.692-4.213a53.191,53.191,0,0,1,22.619-8.88c5.927-.77,15.78-1.821,19.761,3.877.379.542-.187,1.078-.726,1.024Z" fill="#fff"/>
        <path id="Path_81" data-name="Path 81" d="M288.854,485.085c-.932,2.537-1.524,5.153-2.4,7.708-.848,2.48-1.7,4.971-2.346,7.51-.606,2.4-4.447,1.482-3.73-.871a47.5,47.5,0,0,1,2.729-6.946c1.289-2.642,2.955-5.048,3.97-7.816.4-1.086,2.179-.69,1.775.415Z" fill="#fff"/>
        <path id="Path_82" data-name="Path 82" d="M305.917,486.548c-4.947,4.967-8.206,11.458-13.228,16.257a1.73,1.73,0,0,1-2.546-2.339c4.343-5.128,8.935-12.007,15.411-14.489a.353.353,0,0,1,.363.571Z" fill="#fff"/>
        <path id="Path_83" data-name="Path 83" d="M270.437,431.709a30.312,30.312,0,0,1-7.163,5.481c-3.042,1.55-6.229,2.763-9.216,4.429-3.286,1.83-5.626-3.142-2.162-4.662a69.718,69.718,0,0,1,8.443-3.013c3.268-.956,6.825-1.239,10.026-2.35a.071.071,0,0,1,.072.115Z" fill="#fff"/>
        <path id="Path_84" data-name="Path 84" d="M505.828,363.7a73.225,73.225,0,0,0-20.9,8.525c-2.433,1.441-4.745-2.165-2.364-3.7,6.764-4.371,15.653-3.4,23.187-5.09.176-.041.259.226.081.266Z" fill="#fff"/>
        <path id="Path_85" data-name="Path 85" d="M522.29,419.174c-11.464,1.636-22.9,4.626-34.255,7-11.406,2.387-22.807,5.029-33.476,9.826-2.871,1.291-4.313-3.424-1.447-4.687a135.042,135.042,0,0,1,32.2-9.09c12.319-2.059,24.674-1.951,36.964-3.705.417-.059.433.6.019.654Z" fill="#fff"/>
        <path id="Path_86" data-name="Path 86" d="M538.59,477.869c-11.245,5.561-23.725,7.244-35.913,9.61-13.625,2.641-26.761,6.115-40.1,9.853a1.893,1.893,0,0,1-1.116-3.615c12.475-4.144,25.421-6.572,38.271-9.158,12.571-2.536,25.626-3.481,37.379-9.012,1.577-.742,3.084,1.532,1.482,2.322Z" fill="#fff"/>
        <path id="Path_87" data-name="Path 87" d="M560.047,533.7c-12.736,2.761-24.88,9.066-37.489,12.529C510,549.676,496.531,550.188,485,556.787c-2.483,1.419-4.879-2.333-2.391-3.742,11.284-6.391,24.351-7.617,36.794-10.426,7.015-1.583,13.851-3.914,20.78-5.826,6.718-1.852,13.038-2.281,19.856-3.141.025,0,.031.039.006.045Z" fill="#fff"/>
        <path id="Path_88" data-name="Path 88" d="M459.323,499.833a253,253,0,0,1-30.1,10.9c-11,3.289-22.654,4.858-33.12,9.762-20.669,9.69-38.089,25.014-58.587,35.035-2.918,1.429-5.719-2.757-2.765-4.328,20.278-10.8,38.7-24.8,59.674-34.322,10.872-4.938,22.209-6.891,33.708-9.68,10.226-2.481,20.457-8.121,31.176-7.414a.023.023,0,0,1,.01.044Z" fill="#fff"/>
        <path id="Path_89" data-name="Path 89" d="M475.783,556.871c-20.581,7.318-42.831,11.072-62.406,21.049a296.677,296.677,0,0,0-28.284,16.988c-8.886,5.856-19.587,13.522-30.2,15.485a2.347,2.347,0,0,1-1.947-4.2c4.139-3.047,8.95-5.056,13.466-7.5,5.221-2.825,10.3-5.893,15.431-8.867,9.7-5.615,19.306-11.6,29.545-16.191,20.549-9.213,42.28-13.494,64.378-16.858.054-.009.064.075.014.092Z" fill="#fff"/>
        <path id="Path_90" data-name="Path 90" d="M450.36,441.41c7.464,6.383,8.847,18.1,11.08,27.129,2.745,11.1,7.637,21.378,10.443,32.467,2.711,10.721,4.6,21.633,7.577,32.288,2.822,10.111,6.53,19.966,7.469,30.5.433,4.859-7.562,6.272-8.54,1.42-2-9.915-5.221-19.407-8.147-29.074-2.977-9.85-4.93-20.011-7.341-30.01-2.516-10.441-6.943-19.967-10.355-30.092-1.69-5.012-3.079-10.131-4.564-15.2-1.6-5.437-3.876-10.85-3.795-16.594a3.721,3.721,0,0,1,6.173-2.828Z" fill="#fff"/>
        <path id="Path_91" data-name="Path 91" d="M418.284,448.56c3.937,1.719,4.334,7.32,5.517,10.977,1.753,5.408,3.8,10.721,5.666,16.092,4.154,11.936,6.723,24.394,10.535,36.453,7.556,23.9,17.738,48.773,17.816,74.227.012,3.66-5.947,4.993-6.62,1.1-4.067-23.506-11.025-45.62-18.56-68.22-3.593-10.78-6.536-21.68-9.672-32.591-3.119-10.839-8.061-21.066-10.863-32.005a4.858,4.858,0,0,1,1.06-4.711l.57-.537a3.928,3.928,0,0,1,4.551-.786Z" fill="#fff"/>
        <path id="Path_92" data-name="Path 92" d="M391.108,453.021l.263-.081A5.016,5.016,0,0,1,397,455.006c13.374,20.14,14.76,45.909,22.083,68.443,8.491,26.119,20.845,52.772,22.1,80.574.154,3.448-5.438,4.546-6.121,1.018-5.155-26.7-15.193-51.283-23.927-76.911-7.542-22.13-9.005-48.148-22.475-67.794q2.817,1.033,5.632,2.063c-.088.029-.173.055-.262.083-6.094,1.909-9.031-7.6-2.922-9.461Z" fill="#fff"/>
        <path id="Path_93" data-name="Path 93" d="M372.341,458.246c10.9,26.029,15.557,54.262,24.256,80.991,4.38,13.47,10.507,26.3,14.819,39.769,4.163,12.994,7.184,26.064,12.6,38.646,1.338,3.11-3.5,5.1-5.248,2.434-6.816-10.409-9.239-23.35-12.719-35.128-4.182-14.145-10.891-27.439-15.945-41.288-5.344-14.641-8.526-29.758-12.987-44.647-3.837-12.808-9.491-25.378-12.18-38.49a3.878,3.878,0,0,1,7.406-2.287Z" fill="#fff"/>
        <path id="Path_94" data-name="Path 94" d="M358.086,467.25c3.08,14.167,8.69,28,13.619,41.635,5.01,13.865,8.675,28.168,13.913,41.939,5.072,13.342,11.357,26.188,16.4,39.543,4.581,12.141,9.129,25.928,8.263,39.076a2.336,2.336,0,0,1-4.667.141,172.707,172.707,0,0,0-9.737-39.548c-4.849-12.653-10.515-24.977-15.317-37.649-4.947-13.052-7.938-26.764-12.3-40.019-4.859-14.745-9.415-29.164-12.714-44.333-.363-1.664,2.178-2.465,2.544-.785Z" fill="#fff"/>
        <path id="Path_95" data-name="Path 95" d="M345.556,474.568c2.319,6.612,5.313,12.932,7.438,19.637,2.332,7.358,4.683,14.707,7.113,22.034,4.629,13.954,9.336,27.791,13.127,42.005,3.7,13.9,7.5,27.672,12.464,41.18,4.409,11.993,11,25.666,11.381,38.6a2.017,2.017,0,0,1-3.926.656c-2.141-6.16-3.236-12.743-5.224-18.987-2.029-6.368-4.42-12.617-6.768-18.87-5.057-13.474-9.532-27.027-13.533-40.849-4.08-14.1-8.689-28.023-12.833-42.1-4.175-14.17-7.241-28.526-11.026-42.762a.936.936,0,0,1,1.787-.551Z" fill="#fff"/>
        <path id="Path_96" data-name="Path 96" d="M334.356,483.555A153.179,153.179,0,0,1,346.6,518.6a356.354,356.354,0,0,0,11.619,42.707c9.466,27.266,18.69,54.517,25.182,82.685.465,2.012-2.393,3.654-3.483,1.615-6.408-11.98-8.343-26.373-11.877-39.385-3.995-14.721-10.63-28.734-15.813-43.065A293.994,293.994,0,0,1,340.767,520.4c-1.416-7.07-2.673-13.931-5.114-20.736-1.9-5.3-3.706-10.2-2.739-15.859a.8.8,0,0,1,1.442-.248Z" fill="#fff"/>
        <path id="Path_97" data-name="Path 97" d="M461.49,387.646c-9.4,6.479-22.229,8.243-32.708,12.654-11.237,4.73-20.544,12.1-30.657,18.69-2.252,1.469-4.158-1.815-2.187-3.425a137.03,137.03,0,0,1,29.72-18.389c10.524-4.787,24.114-9.768,35.8-9.616a.047.047,0,0,1,.028.086Z" fill="#fff"/>
        <path id="Path_98" data-name="Path 98" d="M464.987,396.935c-2.28,4.044-3.743,7.229-7.26,10.513a58.255,58.255,0,0,1-11.01,7.63c-8.113,4.649-17.022,7.707-25.546,11.471a111.049,111.049,0,0,1-31.311,8.461c-11.347,1.4-22.716-.928-34,1.62-3.122.7-4.622-4.061-1.475-4.776,9-2.044,18.019-1.6,27.174-1.5,11.134.126,21.893-2.541,32.41-5.972a222.861,222.861,0,0,0,27.071-11.272c8.085-3.882,17.779-9.516,23.8-16.282a.093.093,0,0,1,.151.105Z" fill="#fff"/>
      </g>
    </g>
    <g id="Group_8" data-name="Group 8">
      <path id="Path_99" data-name="Path 99" d="M711.626,164.9c-.285,2.784,1.571,5.688,3.809,7.212-1.132,1.185-2.918,4.178-4.751,5.146,2.1.648,5.432,3.209,7.532,3.858-2.629,3.215-4.269,6.7-3.867,8.484.813,3.649,7.186,3.842,10.207,5.74.8,4.848-14.451,17-17.63,19.853-16.222,10.326-39.14,6.025-56.318,18.833-11.239,10.328-20.731,32.694-23.536,47.354-6.868,18.644-5.7,10.268-6.868,18.644-3.591,10.39-8.071,22.421-11.745,34.318s-16.152,49.828-19.826,61.726c-5.619,18.2-11.807,41.965-16.022,55.612s-27.9,84.144-31.625,93.725c0,0-22.106,37.957-26.706,60.3-4.383,21.643-12.053,41.509-17.836,62.722,11.2,3.455,29.025,2.828,41.358,5.1,23.258,4.118,46.571,10.548,70.53,14.883,26.275,4.28,53.9,6.678,79.364,16.072,13.566,5.722,12.484,9.222,26.482,13.545,6.473-11.037,11.669-37.8,11.669-37.8,10.69-29.664,12.054-47.35,22.638-77.048,6.461-18.13,11.692-38.538,17.888-55.135,6.641-17.787,12.137-40.238,19.022-58.81,9.256,13.782,9.174,14.046,15.607,25.806,14.7,4.538,32.381,10.573,39.791,11.711,10.221-1.442,31.067-9.379,44.242-14.8A195.434,195.434,0,0,0,909.67,475s3.56-35.123,1.256-45.032c-7.783-13.9-15.045-20.171-25.308-36.276-8.451-4.91-29.859-10.37-36.4-11.527-6.2,2.685-30.57,10.875-35.953,8.446l-.316-2.4h0c9.928-17.015,8.423-48.38,4.913-65.562-2.339-11.441-12.21-19.807-14.3-23.2-2.927-4.748-10.3-19.088-10.3-19.088-3.034-3.385,1.027-14.857.973-22.7-.048-6.891,1.586-16.071,3.68-19.368,3.474-.076,9.485.63,14.5-3.19,6.576-6.4,4.266-10.086,6.643-17.785,1.883-7.188,4.6-15.827,6.644-21.52,7.493.875,10.087-6.973,11.609-17.115,6.755-4.033,9.036-2.943,10.435-15.176.49-4.281.507-8.174,1.167-14.013.995-8.823,2.309-19.912-.237-26.235C837.127,94.605,790.9,76.683,766.49,88.7c-11.152,5.488-19.294,14.069-25.065,25.32-3.563,6.565-7.231,18.754-9.838,22.545S716.9,159.914,711.626,164.9Z" fill="#ff6d9a"/>
      <g id="Group_7" data-name="Group 7">
        <path id="Path_100" data-name="Path 100" d="M729.7,164.344c3.067-7.127,2.517-1.1,5.849-.458a13.255,13.255,0,0,0,8.352-1.31c7.444-3.3,12.794-10.52,18.995-15.517,8.739-7.046,17.54-13.339,25.486-21.325,8.181-8.221,16.122-16.962,27.271-21.074.522-.193.357-1.037-.2-.864-16.285,5.074-27.31,18.594-40.022,29.077-7.71,6.358-16.7,11.545-23.387,19.072-3.288,3.7-14.07,12.812-19.1,7.187a.513.513,0,0,0-.722-.03,11.018,11.018,0,0,0-2.83,5.145.163.163,0,0,0,.312.1Z" fill="#fff"/>
        <path id="Path_101" data-name="Path 101" d="M731.547,170c2.777,3.082,2.874,7.394,7.536,8.212,2.757.484,5.977-1.065,8.061-2.752,7.613-6.158,14.565-13.8,21.484-20.727,16.578-16.593,33.988-34.1,56.062-43.177.956-.394.351-2.009-.63-1.7-18.8,6.06-33.236,18.345-47.338,31.794-7.1,6.766-14.12,13.6-21.473,20.09-6.708,5.924-14.576,17.048-23.53,8.1a.117.117,0,0,0-.172.158Z" fill="#fff"/>
        <path id="Path_102" data-name="Path 102" d="M728.811,181.957c5.133,10.946,15.088,9.6,23.785,2.908,11.714-9.022,17.88-22.474,25.794-34.558,1.138-1.738-1.457-3.317-2.678-1.711-6.509,8.571-12.392,17.742-20.055,25.36a52.172,52.172,0,0,1-13.373,9.543c-4.506,2.253-8.2-.735-12.244-2.674a.871.871,0,0,0-1.229,1.132Z" fill="#fff"/>
        <path id="Path_103" data-name="Path 103" d="M787.284,138.651c2.8-2.061,4.932-4.768,7.328-7.257.483-.5-.26-1.3-.725-.792-2.341,2.545-4.411,5.3-7.171,7.429-.434.333.138.935.568.62Z" fill="#fff"/>
        <path id="Path_104" data-name="Path 104" d="M814.435,128.072c10.576-.65,23.219,5.635,28.842,14.814a1.822,1.822,0,0,0,3.221-1.7c-2.687-5.362-9.644-9.016-14.856-11.33-4.469-1.982-12.585-5.387-17.39-2.576-.334.2-.265.821.183.793Z" fill="#fff"/>
        <path id="Path_105" data-name="Path 105" d="M834.018,141.743c-1.315,4.455-2.5,8.176-1.689,12.833,1.058,6.039,5.31,11.349,3.814,17.723-1.2,5.1,6.846,6,6.757,1.125-.1-5.1-2.033-8.555-4.714-12.772-3.826-6.021-5.106-11.609-3.054-18.565a.583.583,0,0,0-1.114-.344Z" fill="#fff"/>
        <path id="Path_106" data-name="Path 106" d="M807.268,145.307c6.866,5.145,14.251,9.765,20.471,15.673a1.806,1.806,0,0,0,2.915-2.057c-4.271-8.3-15.656-9.807-22.632-14.8-.74-.53-1.468.645-.754,1.181Z" fill="#fff"/>
        <path id="Path_107" data-name="Path 107" d="M798.534,151.877c6.4,1.4,15.2,6.062,18.7,11.844-.179-.3,1.045-1.088.028-.155-.655.6-1.532.891-2.233,1.437-1.931,1.514-4.376,2.334-6.358,3.847-1.874,1.427.418,4.68,2.376,3.369,2.888-1.935,5.935-2.373,9.1-3.569a4.25,4.25,0,0,0,2.266-6.144c-2.04-3.6-6.912-5.282-10.314-7.177a34.943,34.943,0,0,0-13.436-4.184.376.376,0,0,0-.122.732Z" fill="#fff"/>
        <path id="Path_108" data-name="Path 108" d="M797.779,157.835a21.508,21.508,0,0,0,12.905,11.8,1.313,1.313,0,0,0,1.088-2.352c-4.818-3.22-9.982-4.476-12.92-10.018-.375-.709-1.353-.145-1.073.566Z" fill="#fff"/>
        <path id="Path_109" data-name="Path 109" d="M814.019,188.489a.08.08,0,0,0,.005.026.558.558,0,0,0,.378.407,8.473,8.473,0,0,1,5.1,3.714,1.791,1.791,0,1,0,2.916-2.054c-1.863-2.387-5.127-4.274-8.106-2.688a.545.545,0,0,0-.3.477c0,.037.008.08.011.118Z" fill="#fff"/>
        <path id="Path_110" data-name="Path 110" d="M773.155,172.01c2.457,5.883,5.58,11.476,10.84,15.279,5.236,3.786,13.921,2.781,19.915,2.261a1.893,1.893,0,0,0,.115-3.781c-5.923-.725-12.337.944-17.938-1.758-5.022-2.422-8.937-8-12.024-12.479a.513.513,0,0,0-.908.478Z" fill="#fff"/>
        <path id="Path_111" data-name="Path 111" d="M800.342,213.732c3.468-.38,8.311-1.825,10.7,1.37,2.11,2.825,6.427-1.769,3.187-3.8a10,10,0,0,0-6.878-1.712c-2.892.464-4.828,1.954-7.282,3.4a.4.4,0,0,0,.275.736Z" fill="#fff"/>
        <path id="Path_112" data-name="Path 112" d="M804.93,201.314a34.578,34.578,0,0,1,5.638-.1,5.766,5.766,0,0,1,4.969,2.844c1.279,1.784,4.04-.316,3.066-2.165-2.455-4.656-9.828-3.2-13.811-1.966-.709.221-.7,1.467.138,1.385Z" fill="#fff"/>
        <path id="Path_113" data-name="Path 113" d="M795.443,198.693c-1.4.627-2.3,2.08-3.424,3.081a9.872,9.872,0,0,1-1.957,1.449,8.6,8.6,0,0,0-2.488,1.388,2.616,2.616,0,0,0,1.675,4.5c3.967.157,8.439-6.141,7.2-9.96a.713.713,0,0,0-1.009-.459Z" fill="#fff"/>
        <path id="Path_114" data-name="Path 114" d="M761.891,199.924c4.884,9.559,11.136,18.13,19.679,24.724,9.375,7.239,18.4,8.661,29.9,8.215,4.453-.173,6.089-6.855,1.345-8.082-4.142-1.073-8.227-.525-12.461-.593-4.98-.08-10.549-3.543-14.883-5.649-8.88-4.317-15.946-12.141-22-19.735-.711-.9-2.085.153-1.589,1.12Z" fill="#fff"/>
        <path id="Path_115" data-name="Path 115" d="M710.484,212.353A274.547,274.547,0,0,0,747.8,222.738c11.016,2.339,22.924,5.157,30.252,14.34,1.44,1.807,4.478-.355,3.292-2.323-5.593-9.286-17.676-12.669-27.554-14.99-14.139-3.324-28.675-6.981-43.1-8.645-.739-.086-.843,1-.207,1.233Z" fill="#fff"/>
        <path id="Path_116" data-name="Path 116" d="M700.133,276.226c-8.521,16.647-4.014,37.033,3.634,53.113,8.04,16.91,22.5,30.124,40.945,34.111,15.808,3.418,34.7,2.215,44.165-12.606,9.017-14.115,8.808-37.4-2.567-50.176-1.868-2.1-5.7.464-4.087,2.883,8.751,13.118,10.258,30.4,1.43,43.955-8.666,13.295-27.739,12.271-41.3,8.824C727.072,352.449,715.94,340.107,708,327.1c-9.261-15.179-12.645-33.467-7.156-50.544.134-.419-.507-.738-.715-.332Z" fill="#fff"/>
        <path id="Path_117" data-name="Path 117" d="M726.851,317.792c-1.189,1.834-1.979,4.185-.814,6.228,1.333,2.341,4.585,1.943,6.4.481,1.45-1.165-.245-3.147-1.763-2.5-.653.277-2.014,1.373-2.629.467-.785-1.155-.576-2.987-.274-4.251a.516.516,0,0,0-.924-.427Z" fill="#fff"/>
        <path id="Path_118" data-name="Path 118" d="M695.7,228.729c4.292,4.532,5.263,9.454,5.271,15.467.006,5.389-2.4,9.073-4.95,13.539-2.481,4.342,2.89,9.058,6.741,5.659,5.157-4.56,6.735-11.717,5.851-18.334-.925-6.941-6.857-12.856-11.433-17.69-.892-.94-2.37.419-1.48,1.359Z" fill="#fff"/>
        <path id="Path_119" data-name="Path 119" d="M631.169,287.244c1.63,5.233,5.23,10.031,8.4,14.42,2.872,3.97,6.47,9.246,11.966,9.024,5.362-.218,9.083-6.152,11.617-10.15,3.351-5.284,5.79-11.228,10.1-15.837,2.366-2.533-.431-7.384-3.71-5.264-7.928,5.13-9.776,16.83-16.343,23.422-5.773,5.795-17.383-12.17-19.992-16.377-.622-1.005-2.428-.492-2.039.762Z" fill="#fff"/>
        <path id="Path_120" data-name="Path 120" d="M654.118,320.893c-.3,4.266-.215,8.523-.635,12.795-.467,4.763-1.185,9.606-.895,14.4.213,3.489,5.7,3.683,5.464.166-.58-8.725.359-19.359-3.142-27.542-.176-.41-.763-.206-.792.185Z" fill="#fff"/>
        <path id="Path_121" data-name="Path 121" d="M613.812,345.485c10.755-2.357,21.8,5.514,31.807,8.468,14.147,4.176,28.076,4.17,41.144,11.921a1.659,1.659,0,0,0,1.786-2.794c-12.262-8.533-27.692-9.495-41.942-12.329-11.3-2.249-21.058-8.9-32.976-6.042a.4.4,0,0,0,.181.776Z" fill="#fff"/>
        <path id="Path_122" data-name="Path 122" d="M686.958,363.835a33.543,33.543,0,0,0,10.691-19.845c.63-3.573-4.737-4.155-4.7-.781.069,6.636-2.829,14.709-6.412,20.268a.281.281,0,0,0,.425.358Z" fill="#fff"/>
        <path id="Path_123" data-name="Path 123" d="M686.6,373.472a238.367,238.367,0,0,1,35.941,10.186c13.053,4.785,24.767,11.709,36.99,18.171,2.159,1.141,4.143-1.844,2.062-3.227-22.16-14.74-48.121-24.84-74.6-27.5-1.352-.136-1.741,2.109-.4,2.374Z" fill="#fff"/>
        <path id="Path_124" data-name="Path 124" d="M778.011,368.157c2.865,5.367.57,11.814-.994,17.275-1.157,4.031-3.968,8.776-4,12.985a2.472,2.472,0,0,0,4.52,1.4c2.705-3.922,3.3-10.475,4.044-15.078.915-5.647.561-12.17-2.372-17.21a.678.678,0,0,0-1.2.632Z" fill="#fff"/>
        <path id="Path_125" data-name="Path 125" d="M785.394,368.48c6.778,8.021,14.511,19.023,25.566,21.212a2.546,2.546,0,0,0,1.5-4.863,71.752,71.752,0,0,1-25.69-17.612.935.935,0,0,0-1.377,1.263Z" fill="#fff"/>
        <path id="Path_126" data-name="Path 126" d="M773.888,243.933c2.978,10.842,1.56,25.351,8.231,34.751,1.176,1.652,3.738.01,3.317-1.752-1.265-5.285-3.507-10.3-4.767-15.627-1.418-6-2.607-12.035-4.6-17.881-.454-1.341-2.571-.91-2.181.509Z" fill="#fff"/>
        <path id="Path_127" data-name="Path 127" d="M656.581,356.729c2.547,3.644,3.8,7.986,6.4,11.65a28.143,28.143,0,0,0,10.806,9.218c5.576,2.794,11.958,4.224,17.882,6.1a182.576,182.576,0,0,1,20.1,8.134c6.476,2.928,13.257,5.3,19.9,7.829,6.733,2.559,13.418,5.8,20.511,7.184,11.917,2.317,24.662-2.321,36.094-5.175,1.324-.331.8-2.456-.478-2.047-11.931,3.8-24.071,6.006-36.556,3.661-5.658-1.064-11.045-3.983-16.268-6.292q-10.618-4.7-21.118-9.653a190.606,190.606,0,0,0-32.554-11.665c-10.641-2.842-18.221-10.215-24.426-19.1-.119-.17-.407-.019-.288.154Z" fill="#fff"/>
        <path id="Path_128" data-name="Path 128" d="M626.416,280.5c-4.549,5.949-5.319,13.154-6.528,20.356-1.466,8.737-4.355,17.148-6.115,25.831a244.148,244.148,0,0,0-4.495,39.473c-.824,22.553,1.389,48.508,21.392,62.537,20.549,14.412,48.709,15.134,72.583,19.552,17.032,3.154,34.1,6.976,49.654,14.83,7.2,3.633,13.439,8.361,20.977,11.37a66.5,66.5,0,0,0,22.431,4.724,1.219,1.219,0,0,0,.4-2.374c-6.565-1.912-13.275-3.025-19.735-5.329-7.817-2.787-14.272-8.441-21.57-12.3-13.747-7.269-29.049-11.059-44.189-14.135-23.724-4.82-49.145-5.919-71.332-16.364-23.869-11.237-26.755-37.029-26.286-60.744a237.223,237.223,0,0,1,4.326-39.957c1.427-7.427,3.739-14.816,4.76-22.3,1.151-8.416,1.995-16.676,4.361-24.877a.352.352,0,0,0-.63-.292Z" fill="#fff"/>
        <path id="Path_129" data-name="Path 129" d="M782.521,466.887c13.277,2.548,25.471,10.167,39.453,9.051,1.229-.1,1.354-1.917.058-1.962-13.306-.474-26.4-4.764-39.455-7.267-.116-.023-.174.155-.056.178Z" fill="#fff"/>
        <path id="Path_130" data-name="Path 130" d="M785.317,452.173c6.422,5.691,14.427,6.718,22.644,7.829a101.456,101.456,0,0,1,18.275,4.6c2.428.789,19.877,5.785,13.922-2.517-.506-.708-1.476.123-1.172.828,1.383,3.194-6.152.752-7.677.334-3.732-1.023-7.377-2.341-11.041-3.567-11.408-3.823-23.573-2.956-34.9-7.583-.042-.018-.084.045-.048.076Z" fill="#fff"/>
        <path id="Path_131" data-name="Path 131" d="M789.8,435.755c8.541,7.291,19.668,8.483,29.568,13.14,7.658,3.6,16.665,8.924,25.369,6.15a2.028,2.028,0,0,0,1.5-2.414,12.229,12.229,0,0,0-4.716-6.244c-1.2-.929-2.342.84-1.58,1.879a9.6,9.6,0,0,1,2.384,5.28q.751-1.2,1.5-2.413c-8.219,2.3-17.117-2.628-24.45-5.884-9.516-4.22-20.44-4.341-29.484-9.6-.066-.04-.153.054-.09.107Z" fill="#fff"/>
        <path id="Path_132" data-name="Path 132" d="M788.962,412.48c4.92,3.556,7.425,9.406,12.226,12.915a51.288,51.288,0,0,0,19.083,8.62,1.5,1.5,0,0,0,.883-2.857c-7.171-2.986-14.555-5.473-20.547-10.606-3.765-3.226-6.673-6.732-11.6-8.157a.048.048,0,0,0-.04.085Z" fill="#fff"/>
        <path id="Path_133" data-name="Path 133" d="M794.812,405.865c9.974,6.979,20.773,12.362,26.116,23.975.789,1.711,3.459.647,3.038-1.136-1.425-5.99-6.538-11.066-11.128-14.843-5.066-4.168-10.888-8.56-17.559-9.5-.857-.119-1.07,1.083-.467,1.507Z" fill="#fff"/>
        <path id="Path_134" data-name="Path 134" d="M802.223,405.034c1.353-2.866,2.551-8.288,6.238-8.733a108.753,108.753,0,0,0,14.032-2.931c8.446-2.177,17.023-4.047,25.427-6.318,2.138-.576,1.987-4.138-.4-4.009-6.838.369-13.577,2.639-20.126,4.509-7.234,2.067-15.153,3.087-22.118,5.824a1.483,1.483,0,0,0-.618,2c1.512,2.808-1.43,7.411-2.476,9.631-.014.027.026.053.041.024Z" fill="#fff"/>
        <path id="Path_135" data-name="Path 135" d="M802.521,406.31a40.572,40.572,0,0,1,2.309-3.432c.859-1.273,1.505-2.727,2.437-3.938,1.482-1.924-2.749-3.326-2.669-.823a12.416,12.416,0,0,1-.745,3.649,20.971,20.971,0,0,1-1.568,4.393c-.086.159.15.311.236.151Z" fill="#fff"/>
        <path id="Path_136" data-name="Path 136" d="M808.811,398.514c8.218,3.573,16.083,3.8,24.85,5.347,9.251,1.63,18.068,6.406,26.8,9.694,9.913,3.733,19.282,8.817,28.638,13.737,4.133,2.174,9.167,4.339,12.706,7.417,2.164,1.883,4.1,2.81,6.929,2.432a1.677,1.677,0,0,0,1.255-2.021c-2.49-7.05-12.469-8.9-18.388-11.742q-14.6-7.016-29.232-13.938c-8.177-3.887-16.732-6.443-25.39-9.069-9.108-2.763-18.923-.807-28.151-1.995-.083-.011-.089.108-.022.138Z" fill="#fff"/>
        <path id="Path_137" data-name="Path 137" d="M908.717,436.188" fill="none" stroke="#fff" stroke-miterlimit="10" stroke-width="1"/>
        <path id="Path_138" data-name="Path 138" d="M862.284,393.024c-7.335,7.325-9.7,18.219-13.972,27.352-3.627,7.74-9.244,16.092-9.635,24.866-.142,3.123,4.839,4.089,5.523.922,1.795-8.317,5.519-15.806,8.932-23.555,4-9.089,8.229-18.838,11.172-28.307a1.246,1.246,0,0,0-2.02-1.278Z" fill="#fff"/>
        <path id="Path_139" data-name="Path 139" d="M849.469,386.911c-16.083-1.523-31.69,18.471-32.284,33.273-.121,3,4.823,3.983,5.343.889,2.728-16.246,13.945-24.5,27.407-32.139a1.082,1.082,0,0,0-.466-2.023Z" fill="#fff"/>
        <path id="Path_140" data-name="Path 140" d="M875.165,396.6c.265,4.074,1.561,7.483,3.07,11.233,2.925,7.258.417,13.924-1.478,21.141-2.947,11.214-3.858,23.238-8.17,34-7.787,19.438-20.318,35.5-35.435,49.7a1.5,1.5,0,0,0,1.708,2.424c7.97-4.42,14.278-12.879,19.7-19.988,6.976-9.139,13.951-18.69,18.774-29.2,5.157-11.235,7.031-23.887,8.858-36.033,1.023-6.809,2.072-12.317.119-18.981-1.465-5-4.38-9.7-6.488-14.451a.353.353,0,0,0-.661.153Z" fill="#fff"/>
        <path id="Path_141" data-name="Path 141" d="M832.246,480.884c8.467,2.982,16.233,7.188,24.452,10.682,9.175,3.9,18.5,8.966,25.646,16.012,2.523,2.486,6.55-1.173,4.06-3.727-14.2-14.573-34.344-21.078-54.012-23.833-.516-.073-.6.707-.146.866Z" fill="#fff"/>
        <path id="Path_142" data-name="Path 142" d="M845.444,442.892c10.491,5.731,22.1,8.76,32.738,14.188,10.169,5.19,17.816,14.944,28.568,18.991,2.686,1.009,4.152-2.833,2.024-4.368-8.954-6.465-17.843-14.113-27.671-19.2-10.791-5.581-23.613-6.828-34.881-11.295a.938.938,0,0,0-.778,1.68Z" fill="#fff"/>
        <path id="Path_143" data-name="Path 143" d="M901.188,431.94c-1.079,8.868-.1,17.953-2.44,26.648-1.281,4.764-2.093,8.848-4.395,13.346a139.323,139.323,0,0,1-8.88,14.214c-5.611,8.3-12.219,15.883-20.842,21.122-7.153,4.344-15.412,6.256-22.27,11.168-1.337.958.241,3.068,1.628,2.31,8.26-4.513,17.3-7.153,25.626-11.447,8.412-4.341,14.642-12.967,20.079-20.456a94.158,94.158,0,0,0,14.123-26.918c1.271-3.944.852-8.434.866-12.527.018-5.795-.315-11.607-.788-17.376a1.355,1.355,0,0,0-2.707-.084Z" fill="#fff"/>
        <path id="Path_144" data-name="Path 144" d="M825,507.8c4.979-7.911,3.911-18.277,9.381-26.231,1.28-1.862-1.746-3.8-2.953-1.888-4.76,7.537-8.289,18.6-8.366,27.522a1.059,1.059,0,0,0,1.938.6Z" fill="#fff"/>
        <path id="Path_145" data-name="Path 145" d="M802.414,509.767c2.949-.3,5.65-1.751,8.6-2.29a26.232,26.232,0,0,1,11.439.918c6.921,1.879,12.932,5.778,18.918,9.563,2.736,1.731,5.33-2.388,2.691-4.211a53.174,53.174,0,0,0-22.619-8.881c-5.927-.77-15.779-1.822-19.761,3.877-.378.542.188,1.078.727,1.024Z" fill="#fff"/>
        <path id="Path_146" data-name="Path 146" d="M804.828,485.085c.933,2.537,1.524,5.153,2.4,7.708.847,2.481,1.7,4.97,2.345,7.51.607,2.4,4.447,1.482,3.731-.871a47.5,47.5,0,0,0-2.73-6.946c-1.289-2.642-2.955-5.048-3.97-7.816-.4-1.087-2.178-.689-1.775.415Z" fill="#fff"/>
        <path id="Path_147" data-name="Path 147" d="M787.766,486.548c4.947,4.967,8.206,11.457,13.227,16.257a1.73,1.73,0,0,0,2.547-2.339c-4.344-5.129-8.936-12.007-15.411-14.489a.353.353,0,0,0-.363.571Z" fill="#fff"/>
        <path id="Path_148" data-name="Path 148" d="M823.245,431.709a30.3,30.3,0,0,0,7.163,5.48c3.042,1.551,6.23,2.764,9.217,4.431,3.285,1.83,5.626-3.143,2.161-4.662a69.477,69.477,0,0,0-8.442-3.014c-3.269-.956-6.825-1.238-10.027-2.35a.071.071,0,0,0-.072.115Z" fill="#fff"/>
        <path id="Path_149" data-name="Path 149" d="M587.854,363.7a73.214,73.214,0,0,1,20.9,8.525c2.432,1.441,4.745-2.165,2.363-3.7-6.764-4.37-15.652-3.4-23.187-5.09-.175-.041-.258.226-.081.266Z" fill="#fff"/>
        <path id="Path_150" data-name="Path 150" d="M571.393,419.174c11.463,1.636,22.9,4.626,34.254,7,11.407,2.386,22.807,5.029,33.477,9.826,2.87,1.291,4.312-3.424,1.446-4.687a135.068,135.068,0,0,0-32.194-9.09c-12.319-2.058-24.675-1.951-36.965-3.705-.417-.059-.433.6-.018.654Z" fill="#fff"/>
        <path id="Path_151" data-name="Path 151" d="M555.093,477.869c11.245,5.561,23.724,7.245,35.913,9.609,13.625,2.642,26.761,6.116,40.1,9.855a1.893,1.893,0,0,0,1.117-3.616c-12.475-4.144-25.421-6.572-38.272-9.159-12.57-2.534-25.626-3.48-37.379-9.011-1.576-.742-3.084,1.532-1.481,2.322Z" fill="#fff"/>
        <path id="Path_152" data-name="Path 152" d="M533.636,533.7c12.735,2.761,24.88,9.066,37.489,12.529,12.561,3.45,26.026,3.961,37.556,10.561,2.482,1.419,4.879-2.333,2.39-3.742-11.284-6.39-24.35-7.617-36.794-10.426-7.014-1.583-13.85-3.914-20.78-5.826-6.718-1.852-13.037-2.282-19.854-3.141-.025,0-.032.039-.007.045Z" fill="#fff"/>
        <path id="Path_153" data-name="Path 153" d="M634.359,499.833a253.314,253.314,0,0,0,30.1,10.9c11,3.289,22.653,4.857,33.119,9.761,20.669,9.69,38.09,25.014,58.587,35.036,2.918,1.428,5.72-2.758,2.766-4.329-20.279-10.8-38.7-24.8-59.674-34.322-10.872-4.938-22.209-6.891-33.708-9.68-10.227-2.481-20.457-8.12-31.177-7.414a.023.023,0,0,0-.01.044Z" fill="#fff"/>
        <path id="Path_154" data-name="Path 154" d="M617.9,556.871c20.581,7.318,42.831,11.072,62.407,21.049a296.746,296.746,0,0,1,28.284,16.989c8.886,5.855,19.587,13.521,30.2,15.483a2.347,2.347,0,0,0,1.947-4.2c-4.138-3.047-8.95-5.056-13.465-7.5-5.221-2.825-10.3-5.893-15.431-8.867-9.7-5.616-19.307-11.6-29.545-16.191-20.55-9.214-42.28-13.494-64.378-16.858-.055-.009-.064.075-.015.092Z" fill="#fff"/>
        <path id="Path_155" data-name="Path 155" d="M643.322,441.411c-7.464,6.382-8.846,18.1-11.08,27.128-2.745,11.1-7.637,21.378-10.442,32.467-2.711,10.721-4.6,21.632-7.577,32.288-2.823,10.111-6.531,19.965-7.469,30.5-.434,4.86,7.561,6.273,8.54,1.421,2-9.915,5.221-19.407,8.146-29.074,2.978-9.85,4.93-20.011,7.341-30.011,2.517-10.44,6.944-19.966,10.356-30.091,1.689-5.012,3.079-10.131,4.563-15.2,1.6-5.438,3.876-10.85,3.795-16.594a3.721,3.721,0,0,0-6.173-2.827Z" fill="#fff"/>
        <path id="Path_156" data-name="Path 156" d="M675.4,448.56c-3.936,1.72-4.334,7.32-5.516,10.977-1.753,5.408-3.8,10.721-5.666,16.091-4.155,11.937-6.724,24.4-10.535,36.454-7.556,23.9-17.739,48.774-17.817,74.227-.012,3.66,5.947,4.993,6.62,1.1,4.068-23.506,11.026-45.62,18.561-68.22,3.593-10.78,6.535-21.68,9.672-32.591,3.119-10.839,8.06-21.065,10.862-32.006a4.859,4.859,0,0,0-1.06-4.711c-.19-.177-.379-.356-.57-.536a3.928,3.928,0,0,0-4.551-.786Z" fill="#fff"/>
        <path id="Path_157" data-name="Path 157" d="M702.574,453.021l-.263-.081a5.016,5.016,0,0,0-5.632,2.066c-13.374,20.14-14.76,45.909-22.083,68.443-8.492,26.119-20.845,52.771-22.1,80.574-.154,3.448,5.437,4.546,6.12,1.018,5.155-26.7,15.193-51.283,23.928-76.911,7.542-22.131,9.005-48.148,22.474-67.794l-5.631,2.063.261.083c6.094,1.908,9.032-7.6,2.922-9.461Z" fill="#fff"/>
        <path id="Path_158" data-name="Path 158" d="M721.342,458.246c-10.906,26.029-15.558,54.262-24.256,80.991-4.38,13.47-10.508,26.3-14.819,39.769-4.164,12.994-7.184,26.065-12.6,38.646-1.339,3.11,3.5,5.1,5.248,2.434,6.815-10.409,9.238-23.349,12.719-35.128,4.181-14.146,10.89-27.439,15.945-41.288,5.344-14.64,8.525-29.758,12.986-44.647,3.837-12.808,9.492-25.378,12.181-38.49a3.878,3.878,0,0,0-7.406-2.287Z" fill="#fff"/>
        <path id="Path_159" data-name="Path 159" d="M735.6,467.249c-3.08,14.168-8.691,28.005-13.62,41.636-5.009,13.865-8.674,28.168-13.913,41.94-5.072,13.342-11.356,26.187-16.4,39.542-4.581,12.14-9.13,25.928-8.264,39.076a2.336,2.336,0,0,0,4.667.141,172.664,172.664,0,0,1,9.738-39.548c4.848-12.653,10.514-24.977,15.316-37.649,4.947-13.052,7.938-26.764,12.3-40.019,4.858-14.745,9.415-29.164,12.714-44.333.363-1.664-2.178-2.465-2.544-.786Z" fill="#fff"/>
        <path id="Path_160" data-name="Path 160" d="M748.127,474.568c-2.319,6.612-5.314,12.933-7.439,19.637-2.332,7.357-4.682,14.707-7.113,22.034-4.629,13.954-9.336,27.791-13.127,42.006-3.705,13.9-7.5,27.671-12.464,41.179-4.409,11.993-11,25.665-11.381,38.6a2.017,2.017,0,0,0,3.926.656c2.142-6.16,3.237-12.743,5.225-18.987,2.028-6.368,4.42-12.617,6.767-18.87,5.057-13.474,9.533-27.027,13.534-40.85,4.08-14.1,8.688-28.022,12.833-42.1,4.174-14.171,7.241-28.526,11.025-42.762a.935.935,0,0,0-1.786-.551Z" fill="#fff"/>
        <path id="Path_161" data-name="Path 161" d="M759.326,483.554a153.2,153.2,0,0,0-12.24,35.046,356.785,356.785,0,0,1-11.619,42.707c-9.466,27.266-18.691,54.518-25.183,82.686-.465,2.011,2.394,3.653,3.484,1.614,6.408-11.98,8.342-26.372,11.876-39.385,4-14.721,10.63-28.734,15.814-43.065A294.267,294.267,0,0,0,752.916,520.4c1.416-7.07,2.673-13.932,5.113-20.736,1.9-5.306,3.706-10.206,2.74-15.86a.8.8,0,0,0-1.443-.249Z" fill="#fff"/>
        <path id="Path_162" data-name="Path 162" d="M632.192,387.646c9.4,6.479,22.23,8.243,32.708,12.654,11.238,4.73,20.544,12.1,30.658,18.69,2.252,1.469,4.158-1.815,2.186-3.425a136.967,136.967,0,0,0-29.72-18.389c-10.523-4.787-24.114-9.768-35.8-9.616a.047.047,0,0,0-.029.086Z" fill="#fff"/>
        <path id="Path_163" data-name="Path 163" d="M628.7,396.936c2.281,4.043,3.743,7.228,7.261,10.512a58.229,58.229,0,0,0,11.01,7.631c8.112,4.648,17.021,7.707,25.546,11.47a110.983,110.983,0,0,0,31.31,8.46c11.348,1.4,22.717-.926,34,1.621,3.122.7,4.622-4.061,1.476-4.776-9-2.044-18.02-1.6-27.175-1.5-11.134.127-21.893-2.541-32.409-5.972a222.792,222.792,0,0,1-27.071-11.272c-8.085-3.882-17.78-9.516-23.8-16.282a.094.094,0,0,0-.152.106Z" fill="#fff"/>
      </g>
    </g>
  </g>
</svg>
