<svg xmlns="http://www.w3.org/2000/svg" width="762.094" height="876.868" viewBox="0 0 762.094 876.868">
  <g id="Group_18" data-name="Group 18" transform="translate(-4605.253 -1017.92)">
    <path id="Path_752" data-name="Path 752" d="M811.74,563.693c3.341-2.227,18.929-12.247,27.279-19.485s45.649-32.288,48.434-35.07,6.124,3.339,11.133,7.236,10.578,2.783,12.806,2.227,6.12-3.9,10.577-6.681,8.349-10.02,8.349-12.8-3.9-8.909-4.453-11.134-18.928-18.371-26.721-25.052-18.928-14.473-21.712-15.031-6.681,2.227-10.021,4.454-7.794,7.794-9.464,10.022.557,9.463.557,12.8,2.783,3.9,4.456,5.566,9.46,8.351,7.791,12.248-20.04,15.587-31.175,25.051-38.412,30.063-40.639,31.732-5.566,0-7.793,0a30.854,30.854,0,0,0-5.011.556s-5.568,1.114-8.906,1.67-5.012,6.125-8.35,9.464,0,0-1.114,2.784-3.9,2.226-6.122,4.454-6.659,6.826-7.238,10.021c-1.114,6.123-3.9,10.02-19.484,25.05C723.295,614.982,668.67,658.889,665.332,660s-5.568-2.782-9.467-.556-10.575,7.237-13.916,11.134-3.34,11.691-3.895,17.257.555,9.465,3.339,12.8,8.91,1.669,13.361,3.9,7.795,5.567,8.35,10.02,5.01,12.248,8.35,16.7,18.927,25.609,25.05,28.393,18.371-1.114,28.392-.558,38.414-5.01,43.421-7.238-.554,5.012-1.11,11.692-6.123,12.8-7.8,16.7-2.226,22.268-3.338,31.177-1.114,46.761-2.784,52.329-3.9,65.134-3.9,67.916-8.909,20.6-12.8,30.061-4.455,71.817-5.011,86.846-2.783,21.71-1.67,28.391,2.226,31.176,1.67,42.31-8.351,77.38-12.8,86.287-26.722,16.145-32.847,16.7-27.833,1.669-27.833-1.116-1.113-23.38-2.784-32.287-1.669-47.32-2.226-59.568-.558-35.071-5.009-35.627-4.457-3.34-13.362-4.454-10.021-3.342-10.021-5.567a54.809,54.809,0,0,0-1.113-9.463c-.559-2.228-6.682,0-13.918-1.669s-8.908-4.456-10.018-6.681-1.673-10.578-1.117-16.145,4.455-12.248,6.683-16.142,5.009-5.014,9.462-6.125,8.908-1.115,10.576-4.455,6.126-5.01,8.909-5.567,10.02,0,17.815-1.113,20.041-7.236,32.288-13.918,13.916-14.472,10.577-16.7-14.475-2.783-22.824-3.341-35.628-2.782-39.526-4.452-13.361-3.9-17.257-5.567-1.113-5.567-3.341-14.475-3.9-22.269-6.124-27.834.556-17.815-7.238-29.507-9.462-38.41-10.576-45.091,1.671-25.05,0-41.753-12.8-19.485-17.814-21.154-16.7-5.566-20.6-7.235-3.9-5.013-4.452-11.693,2.782-12.248,3.9-15.03a77.614,77.614,0,0,0,3.339-10.577c.559-2.783,1.67-11.691,1.67-11.691s4.456-3.9,5.568-8.35,0-5.012-.557-7.238-.555-2.782-.555-7.793-.557-15.031-8.909-22.824-22.825-5.568-33.959-3.9-15.586,25.052-15.586,25.052-2.785.555-4.454-.558-.558,7.239-.558,11.135,3.34,15.03,3.34,15.03,3.342,2.785,3.342,5.01-1.114,9.465-1.114,16.144-13.361,11.692-17.814,11.134-6.681-4.451-12.247-6.123-18.372-2.784-22.269-3.339-5.567-3.341-8.35-5.011-15.032-3.34-20.041-4.454a33.182,33.182,0,0,1-11.691-5.009c-2.226-1.671,1.671-26.722,2.227-34.517s7.795-28.39,7.795-30.617,6.123,1.113,6.123,1.113,4.453-1.67,5.01-5.009,4.453-8.909,5.566-12.249,5.011-15.587,5.011-17.813,6.68-12.248,6.68-15.588-7.236-5.567-9.464-7.237-3.34.557-4.453,2.784-2.783,11.689-4.453,11.134-18.371.555-20.6,2.225-5.009,19.486-11.69,37.857-12.8,31.175-16.145,28.947-22.267-5.566-26.163-6.681-4.455-7.236-.558-13.36,5.01-5.01,13.918-5.01,9.464-6.68,9.464-10.577,1.113-6.681,1.113-10.578c0-.9,1.971-8.264,4.454-9.092,2.226-.742,2.71-1.04,3.711-3.712,1.123-2.992-1.749-6.052-1.856-6.308-1.855-4.454-1.855-11.505-1.855-13.733s6.68-7.794,7.793-10.02-1.669-20.041-6.124-31.174S351.911,568.147,343,567.59c0,0-16.145,2.227-23.381,7.237s-7.793,12.248-10.577,18.372-2.228,20.04-1.114,27.835-.557,23.381-3.9,32.287-14.474,15.588-20.04,20.6-12.8,7.237-19.486,17.257-12.8,31.731-14.472,51.218,13.359,52.885,17.814,64.577,24.493,54,25.606,57.338-1.669,16.144-1.669,21.155-2.227,21.71-2.227,24.494-3.9,16.144-3.34,23.939,14.475,20.6,17.257,23.38,3.9,6.122-2.227,10.02-23.38,17.814-38.967,31.175-45.093,37.3-47.32,36.743-7.793-9.464-9.465-12.248-8.9-7.792-13.917-7.238-5.566,3.9-11.69,8.352a51.478,51.478,0,0,0-11.134,10.577c-1.671,2.227,1.113,7.237,1.113,9.465s4.453,7.237,3.9,10.019-1.114,7.237.555,10.021a247.962,247.962,0,0,0,16.144,22.268c6.126,7.237,22.269,30.62,25.053,32.288s5.009-1.113,9.463-2.781a41.729,41.729,0,0,0,13.361-7.8c4.453-3.9,5.567-3.9,9.464-6.125s5.566-8.908,5.01-11.69-7.238-7.8-9.463-10.577-6.68-12.247-7.794-15.032-3.9-8.908-1.671-11.132,10.578-8.352,14.474-11.692,35.63-31.176,38.969-34.516,34.516-25.051,36.185-23.938,4.454,8.352,7.237,15.588,15.033,27.834,17.258,38.412,2.783,12.248-1.67,18.928-11.692,16.7-20.041,27.835-11.134,22.268-13.361,36.185-7.237,39.525-8.907,49.546-10.578,41.751-13.362,47.321-4.452,13.917-7.236,14.473-18.37,2.227-26.164,3.34-25.051,2.783-39.526,5.01-26.722,5.01-30.062,8.351-5.01,6.679-4.453,14.474,2.228,61.792,2.228,61.792l734.84-1.671s1.669-47.874,2.225-58.451,1.114-10.579.555-18.372-.555-5.567-3.338-7.235-11.136-5.567-11.691-10.58a67.979,67.979,0,0,0-3.342-14.473c-1.669-5.009-7.237-13.918-10.577-23.381s-.555-21.712-.555-31.173-1.114-22.828,0-36.744-6.683-32.844-12.249-42.308-23.936-33.4-27.278-45.093-5.008-28.948-5.008-38.412-3.342-35.629-3.9-40.082,2.785-6.68,5.567-12.8-.558-16.145-.558-21.711-5.009-15.032-5.566-18.927-2.784-14.474-5.568-26.167-1.114-12.247,1.114-18.927,10.02-18.37,16.144-32.288,14.474-53.443,17.258-72.37.554-33.4-5.011-40.083-16.7-21.154-22.824-29.5-10.577-25.051-10.577-37.855-7.237-26.166-11.135-30.619-13.916-12.247-18.927-13.361-15.031,0-15.031,0,13.363-12.8,16.145-15.587,2.227-9.463,2.227-13.361S808.4,565.92,811.74,563.693Zm-54,52.329c0,2.227-3.9,7.238-5.567,10.578s-3.9,11.691-6.679,17.258-9.465,30.618-11.135,34.515-1.114,20.6-1.114,24.495,3.9,5.567,6.123,7.237,5.012,6.123,2.786,6.68-10.022,3.9-16.7,3.9-16.144-7.793-20.6-10.021-12.247-11.134-14.474-13.917-1.67-10.019-1.112-12.247,0-13.36.556-15.587,13.361-12.8,18.927-17.258,20.043-16.7,25.053-21.154,22.824-18.928,24.493-21.711C758.3,608.786,757.742,613.8,757.742,616.022ZM388.487,880.192c-.01,1.087-.072,1.594-.2,1.189a1.243,1.243,0,0,1,.2-1.189c.047-4.911-.947-21.82-.947-21.82s5.2,8.164,5.937,10.391,2.228,5.2.743,7.422C393.036,877.963,389.495,878.8,388.487,880.192Zm76.245,292.118c-1.5,16.211-.5,42.692-2,44.312s-10.511,1.623-14.013,1.081-11.011-5.4-11.011-5.4,1-11.348,2-15.67,4-10.808,6.006-16.213,8.509-17.834,9.009-22.7,2.5-22.155,3.5-28.1,6.506-17.294,6.506-17.294,0,4.864.5,10.267S466.233,1156.1,464.732,1172.31Zm7.426-277.939c-.558,3.9,0,15.029-1.114,18.926s-.556,20.6-2.785,25.609-3.34,17.257-5.566,21.154-1.669,10.578-3.34,11.692-10.021,1.113-14.474,1.67-17.814-.557-18.371,2.226-2.226,5.568-1.671,9.463,3.342,9.465,5.569,10.579,18.371,6.679,20.041,8.907-5.011,18.37-5.568,24.5-4.453,23.936-3.9,30.617,0,32.289-2.783,37.3-5.567,7.795-7.238,12.8-3.9,16.145-5.567,19.484-7.235,16.7-8.349,21.157-3.9,23.38-2.785,26.72.557,18.927.557,22.267,1.115,11.134-.557,11.692-10.02-7.236-10.02-13.917-1.114-32.846,1.671-45.649,4.453-43.422,6.123-47.875,6.68-28.393,7.236-34.517-5.01-27.834-6.679-35.071-6.123-46.762-8.351-54-7.236-22.268-8.35-26.721-6.681-9.464-5.567-11.135,4.454-2.227,6.124-2.782,1.669-7.795,1.669-7.795,8.352-7.235,11.692-9.463,11.133-15.588,13.918-27.279,1.111-40.639,1.668-49.544-5.01-31.176-7.792-38.412-9.465-13.919-9.465-13.919l-1.669-6.679s16.143,6.679,20.04,7.791,13.361,3.342,16.7,8.351,8.352,15.589,9.465,22.826,3.34,20.042,5.567,25.607,7.794,22.826,9.464,25.609S472.714,890.475,472.158,894.371Zm55.668,155.875c-1.113,5.565-1.669,10.022-3.339,12.8s-5.568,3.9-8.35,6.123a119.083,119.083,0,0,1-10.577,7.237c-2.784,1.67-6.682,8.351-10.021,9.462s-12.8,2.786-12.8,2.786,4.453-20.041,7.793-26.722,13.361-31.174,15.032-32.288,5.008-1.115,5.008-1.115c3.9,1.672,5.569,2.229,8.908,6.125S528.941,1044.678,527.826,1050.246Zm60.681-79.052c-2.229,1.115-6.123-1.671-8.907-4.452s-3.34-7.795-3.34-11.135-.558-18.927-.558-18.927c1.673,2.226,3.342,15.031,5.011,17.814s2.785,7.236,5.009,10.576S590.733,970.081,588.507,971.194Zm204.864,54.557c0-2.784,6.123.556,6.123,6.681s4.455,13.918,5.567,18.928,10.578,17.257,13.362,20.04,11.69,16.7,13.917,21.156,7.793,23.935,8.907,31.731,5.566,24.493,8.351,32.287,3.9,28.948,2.783,34.515-11.69,11.135-19.485,15.589-22.269,10.018-27.835,11.133-20.041,4.455-24.5,4.455H756.629s-1.114-4.455-1.67-6.125,7.236-15.586,8.351-20.042,11.691-26.164,15.031-35.627,5.011-25.053,5.011-31.177-.559-24.492-1.116-31.174,0-25.606-.556-33.958,4.453-23.382,6.125-28.391S793.371,1028.533,793.371,1025.751Z" transform="translate(4437.029 570.092)" fill="#ffc324"/>
    <path id="Path_754" data-name="Path 754" d="M317.874,627.916c10.744-2.429,16.355-12.285,26.172-16.372,1.06-.44,1.081-2.365-.3-2.213-11.222,1.242-15.189,15.348-26.087,17.813-.5.114-.29.886.213.772Z" transform="translate(4437.029 570.092)" fill="#fff"/>
    <path id="Path_755" data-name="Path 755" d="M360.147,628.944c-3.115-3.756-4.075-10.416-4.09-15.135-.007-2.021.132-4.681,1.53-6.288,1.791-2.063,5.019,1.935,6.146,2.993,1.085,1.016,2.477-.481,1.594-1.595-3.7-4.661-9.616-5.949-11.134.9a21.263,21.263,0,0,0,5.814,19.262.1.1,0,0,0,.14-.141Z" transform="translate(4437.029 570.092)" fill="#fff"/>
    <path id="Path_756" data-name="Path 756" d="M362.472,625.257a12.053,12.053,0,0,1,.845-6.354c.517-1.236-1.746-1.915-2.027-.56a10.285,10.285,0,0,0,.863,7.049c.095.193.344.046.319-.135Z" transform="translate(4437.029 570.092)" fill="#fff"/>
    <path id="Path_757" data-name="Path 757" d="M382.522,625.48a12.832,12.832,0,0,1,1.76-1.6,23.775,23.775,0,0,1,2.317-1.361c.972-.631.35-2.45-.83-1.968a7.061,7.061,0,0,0-3.666,4.684c-.062.23.251.443.419.243Z" transform="translate(4437.029 570.092)" fill="#fff"/>
    <path id="Path_758" data-name="Path 758" d="M379.535,647.733c-.625-.2-.989-1.018-1.306-1.536a1.252,1.252,0,1,0-1.712,1.712,4.511,4.511,0,0,0,3.018.984c.628-.1.517-.992,0-1.16Z" transform="translate(4437.029 570.092)" fill="#fff"/>
    <path id="Path_759" data-name="Path 759" d="M365.158,674.668c-6.41-10.082-11.1-20.372-8.062-32.629.4-1.617-2.1-2.821-2.792-1.178-4.024,9.524-.457,29.949,9.861,34.8.611.289,1.415-.329.993-.993Z" transform="translate(4437.029 570.092)" fill="#fff"/>
    <path id="Path_760" data-name="Path 760" d="M351.545,706.425c7.688,15.029,15.813,29.706,21.928,45.463a1.5,1.5,0,0,0,2.9-.8c-2.683-17.538-16.354-29.966-24.091-45.093-.25-.489-.985-.057-.735.43Z" transform="translate(4437.029 570.092)" fill="#fff"/>
    <path id="Path_761" data-name="Path 761" d="M316.979,687.079c7.466,3.074,15.384,9.165,23.8,8.214a1.7,1.7,0,1,0-.452-3.344c-8.3,1.5-15.815-2.144-23.255-5.208-.208-.086-.3.253-.092.338Z" transform="translate(4437.029 570.092)" fill="#fff"/>
    <path id="Path_762" data-name="Path 762" d="M276.277,689.268c7.355-5.6,19.459-10.177,28.493-6.918,1.73.622,2.5-2.159.758-2.754-10.872-3.729-21.675,2.176-29.432,9.434-.123.116.045.342.181.238Z" transform="translate(4437.029 570.092)" fill="#fff"/>
    <path id="Path_763" data-name="Path 763" d="M276.83,730.9c5.627,3.183,11.6,8.345,18.3,8.871,7.345.575,12.519-5,19.67-5.143,4.149-.084,4.041-6.039,0-6.36-5.058-.405-9.219,1.885-13.387,4.5-7.626,4.782-17.136,1.829-24.354-2.257a.226.226,0,0,0-.228.39Z" transform="translate(4437.029 570.092)" fill="#fff"/>
    <path id="Path_764" data-name="Path 764" d="M327.311,751.873c3.567,1.478,5.87,3.613,8.994,5.672,2.556,1.685,6.248,2.41,9.159,3.073,5.546,1.262,11.408,1.932,17.029.93,4.148-.739,2.748-6.572-.932-6.884-5.5-.47-10.939-.373-16.428-1.234-5.578-.876-12.5-.211-17.609-2.327-.477-.2-.683.575-.213.77Z" transform="translate(4437.029 570.092)" fill="#fff"/>
    <path id="Path_765" data-name="Path 765" d="M344.288,773.36c3.461,2.564,6.584,5.08,10.489,6.955a55.844,55.844,0,0,0,11.247,3.519c3.868.92,4.738-4.888.733-5.409-7.251-.946-16.014-1.275-22.065-5.758-.416-.308-.814.388-.4.693Z" transform="translate(4437.029 570.092)" fill="#fff"/>
    <path id="Path_766" data-name="Path 766" d="M341.341,788.778c3.351,2.867,7.159,5.171,10.722,7.765s7.506,5.948,11.775,7.187a2.621,2.621,0,0,0,2.534-4.352c-3.1-3.235-7.779-5.185-11.642-7.4a47.891,47.891,0,0,0-12.122-5.376c-1.189-.288-2.309,1.286-1.267,2.175Z" transform="translate(4437.029 570.092)" fill="#fff"/>
    <path id="Path_767" data-name="Path 767" d="M332.386,807.546a37.916,37.916,0,0,0,14.466,7.006c3.212.794,3.948-4.289.606-4.478-4.6-.259-10.819-.453-14.617-3.3-.466-.351-.913.433-.455.777Z" transform="translate(4437.029 570.092)" fill="#fff"/>
    <path id="Path_768" data-name="Path 768" d="M330.975,817.362c6.047,2.456,12.452,5.5,18.84,6.861,2.886.613,4.12-3.713,1.224-4.442a116.863,116.863,0,0,0-19.911-3.549c-.7-.047-.707.905-.153,1.13Z" transform="translate(4437.029 570.092)" fill="#fff"/>
    <path id="Path_769" data-name="Path 769" d="M365.641,829.8a12.726,12.726,0,0,1,2.3,2.563c.745,1.089,1.247,2.365,2.043,3.41a2.333,2.333,0,0,0,3.117.818,2.3,2.3,0,0,0,.817-3.118,17.836,17.836,0,0,0-6.367-6.151c-1.519-.851-3.317,1.286-1.912,2.478Z" transform="translate(4437.029 570.092)" fill="#fff"/>
    <path id="Path_770" data-name="Path 770" d="M377.832,767.817c-.115,3.871-.875,7.465-.2,11.355.859,4.922,2.084,9.726,3.352,14.556,2.462,9.376,3,18.165,3.087,27.765.108,12.567.4,30.8,11.989,38.8,1.771,1.224,4.419-1.273,3.048-3.049-4.817-6.246-7.692-11.91-8.68-19.849-.865-6.952-.47-14-.616-20.982-.159-7.545-1.7-14.617-3.664-21.887-2.311-8.554-6.064-17.844-6.719-26.712a.8.8,0,0,0-1.6,0Z" transform="translate(4437.029 570.092)" fill="#fff"/>
    <path id="Path_771" data-name="Path 771" d="M263.1,741.971c3.665,13.519,8.789,26.1,13.765,39.191,4.519,11.89.98,25.676,6.39,37.161,1.543,3.277,6.077.822,5.493-2.315-1.14-6.1-2.5-12.012-3.3-18.192-.79-6.106-1.763-12.167-4.154-17.875-5.384-12.851-12.285-25.225-17.228-38.236a.5.5,0,0,0-.964.266Z" transform="translate(4437.029 570.092)" fill="#fff"/>
    <path id="Path_772" data-name="Path 772" d="M299.737,823.853c3.763,2.817,6.987,6.541,10.655,9.528a66.6,66.6,0,0,0,11.066,7.522c3.809,2,6.289-3.76,2.3-5.445a147.8,147.8,0,0,1-23.588-12.339c-.466-.309-.856.415-.429.734Z" transform="translate(4437.029 570.092)" fill="#fff"/>
    <path id="Path_773" data-name="Path 773" d="M308.9,845.754c-.828,7.292,1.423,14.918,3.456,21.861,2.26,7.727,4.675,16.088,8.336,23.258,1.439,2.819,5.316.744,4.806-2.024-1.431-7.761-5.414-15.234-8.2-22.595C314.7,859.4,313.11,852.1,310.207,845.4c-.311-.717-1.238-.245-1.307.354Z" transform="translate(4437.029 570.092)" fill="#fff"/>
    <path id="Path_774" data-name="Path 774" d="M345.74,847.342c5.538,2.008,11.058,6.731,14.574,11.372,4.013,5.3,4.713,11.6,6.941,17.616,1.212,3.273,6.983,3.1,6.542-.886a39.149,39.149,0,0,0-8.991-20.194c-5.011-5.954-11.742-7.111-18.6-9.6-1.065-.385-1.52,1.308-.466,1.691Z" transform="translate(4437.029 570.092)" fill="#fff"/>
    <path id="Path_775" data-name="Path 775" d="M319.987,742.044a120.08,120.08,0,0,1,2.393,41.121c-1.306,12.145-3.527,24.626-1.831,36.826,1.715,12.329,6.251,24.013,10.9,35.489,4.445,10.966,8.976,21.909,13.683,32.763.872,2.012,3.712.493,3.34-1.409-4.664-23.909-17.919-45.252-20.8-69.731-1.48-12.566.971-25.574.512-38.238-.461-12.794-2.087-25.213-6.7-37.234a.776.776,0,0,0-1.5.413Z" transform="translate(4437.029 570.092)" fill="#fff"/>
    <path id="Path_776" data-name="Path 776" d="M298.973,874.1c5.307,9.932,12.881,18.241,18.568,27.908,6.763,11.487,8.872,22.606,7.788,35.787-.26,3.175,4.964,3.878,5.557.752,5.182-27.241-15.874-45.679-31.481-64.782-.2-.252-.573.069-.432.335Z" transform="translate(4437.029 570.092)" fill="#fff"/>
    <path id="Path_777" data-name="Path 777" d="M183.417,1040.97" transform="translate(4437.029 570.092)" fill="none" stroke="#fff" stroke-miterlimit="10" stroke-width="1"/>
    <path id="Path_778" data-name="Path 778" d="M177.6,1039.363c8.91,9.1,19.988,15.49,28.7,24.869,9.31,10.02,13.388,23.765,21.843,34.44,2.036,2.574,6.322-.787,4.522-3.487-7.231-10.841-13.173-22.657-21.623-32.637-8.831-10.429-21.028-17.3-32.378-24.561-.856-.547-1.749.677-1.063,1.376Z" transform="translate(4437.029 570.092)" fill="#fff"/>
    <path id="Path_779" data-name="Path 779" d="M187.035,1067.288c3.41.643,6.47,3.364,8.8,5.772,1.592,1.639,1.717,3.446,1.88,5.571.131,1.709-1.949,2.279-3.111,2.947-2.836,1.628-.907,5.921,2.18,5.172,5.687-1.384,6.795-7.942,2.509-11.542-3.613-3.038-7.138-7.663-12.075-8.6-.443-.081-.631.594-.187.679Z" transform="translate(4437.029 570.092)" fill="#fff"/>
    <path id="Path_780" data-name="Path 780" d="M334.838,940.925c9.337-1.08,18.743,8.6,16.288,17.771-.675,2.524,3.092,4.255,4.3,1.812,6.278-12.672-9.523-22.666-20.59-21.387-1.139.133-1.153,1.937,0,1.8Z" transform="translate(4437.029 570.092)" fill="#fff"/>
    <path id="Path_781" data-name="Path 781" d="M311.955,959.536c7.83-4.442,14.225-10.29,20.569-16.632a.926.926,0,0,0-1.31-1.309c-6.134,6.132-12.28,12.647-19.512,17.51a.25.25,0,0,0,.253.431Z" transform="translate(4437.029 570.092)" fill="#fff"/>
    <path id="Path_782" data-name="Path 782" d="M323.983,978.353a45.412,45.412,0,0,0,10.4-6.628c3.611-3.151,6.683-6.834,10.455-9.822,1.56-1.234-.653-3.458-2.2-2.194-6.545,5.354-11.548,13.96-19.22,17.694-.638.31-.081,1.26.556.95Z" transform="translate(4437.029 570.092)" fill="#fff"/>
    <path id="Path_783" data-name="Path 783" d="M349.2,900.815c3.947,17.106,14.892,33.2,14.282,51.083-.111,3.287,4.825,3.217,5.058,0,1.409-19.45-12.629-33.957-18.377-51.349a.5.5,0,0,0-.963.266Z" transform="translate(4437.029 570.092)" fill="#fff"/>
    <path id="Path_784" data-name="Path 784" d="M362.514,919.451c5.158-5.272,10.492-12.263,18.088-14.037,2.488-.581,1.106-4.463-1.408-3.342-7.811,3.488-11.359,11.079-17.1,16.953-.271.279.154.7.424.426Z" transform="translate(4437.029 570.092)" fill="#fff"/>
    <path id="Path_785" data-name="Path 785" d="M371.513,940.941c4.312-5.948,10.278-10.669,16.231-14.885a1.87,1.87,0,1,0-2.274-2.949c-6.1,4.918-11.334,10.243-14.563,17.48a.351.351,0,0,0,.606.354Z" transform="translate(4437.029 570.092)" fill="#fff"/>
    <path id="Path_786" data-name="Path 786" d="M382.343,899.648c10.071-.219,3.953,18.369,6.637,23.886,1.266,2.6,4.646,1,4.9-1.326.547-5.029-.478-11.522-1.631-16.442-1.256-5.348-4.9-7.128-9.9-7.019a.451.451,0,0,0,0,.9Z" transform="translate(4437.029 570.092)" fill="#fff"/>
    <path id="Path_787" data-name="Path 787" d="M378.063,1025.266c4.406-1.1,8.584-3.336,10.855-7.413,2.221-3.993,2.958-8.154,6.453-11.362a1.634,1.634,0,0,0-1.972-2.556c-3.174,1.964-4.663,5.3-5.689,8.756-1.729,5.808-3.614,9.729-9.992,11.323a.65.65,0,0,0,.345,1.252Z" transform="translate(4437.029 570.092)" fill="#fff"/>
    <path id="Path_788" data-name="Path 788" d="M382.28,1034.325a19.076,19.076,0,0,1,2,6.642,20.425,20.425,0,0,0,.839,4.572,9.539,9.539,0,0,0,6.286,6.486c2.388.671,4.033-2.958,1.717-4.074a15.255,15.255,0,0,1-6.54-5.375c-1.872-2.6-2.811-5.475-4.168-8.326-.042-.086-.172-.01-.13.075Z" transform="translate(4437.029 570.092)" fill="#fff"/>
    <path id="Path_789" data-name="Path 789" d="M371.59,1051.462c1.234,8.014,7.454,14.649,8.391,22.907.579,5.1,7.979,2.93,5.786-1.566-3.574-7.323-6.866-16.7-13.624-21.765-.3-.224-.6.144-.553.424Z" transform="translate(4437.029 570.092)" fill="#fff"/>
    <path id="Path_790" data-name="Path 790" d="M311.425,1173.184c5.37-27.021,14.957-52.535,27.112-77.171.963-1.953-1.8-3.619-2.941-1.717-13.836,23.11-23.449,51.88-24.859,78.8a.352.352,0,0,0,.688.091Z" transform="translate(4437.029 570.092)" fill="#fff"/>
    <path id="Path_791" data-name="Path 791" d="M308.093,1197.593c1.346,3.988,1.664,6.933,5.559,9.218,3.811,2.236,9.255.929,12.625-1.428a2.154,2.154,0,0,0-2.173-3.716c-5.069,2.2-13.728,2.532-15.962-4.087-.01-.031-.058-.017-.049.013Z" transform="translate(4437.029 570.092)" fill="#fff"/>
    <path id="Path_792" data-name="Path 792" d="M328,1215.979c5.328,1.344,10.708.812,16.118.172,7.557-.9,14.469-1.222,22.033-.037,2.836.442,4.131-3.75,1.213-4.393-12.361-2.74-27.128.816-39.364,3.1a.606.606,0,0,0,0,1.16Z" transform="translate(4437.029 570.092)" fill="#fff"/>
    <path id="Path_793" data-name="Path 793" d="M449.148,1085.654c6.295.589,12.371,2.18,17.352,6.252,2.7,2.2,6.441-1.319,3.893-3.9-6.248-6.317-13.8-1.96-21.245-2.656-.192-.015-.191.284,0,.3Z" transform="translate(4437.029 570.092)" fill="#fff"/>
    <path id="Path_794" data-name="Path 794" d="M446.92,1112.9a27.657,27.657,0,0,0,7.33-1.634c2.557-.863,5.873-2,8.026-3.579,2.1-1.547.946-5.521-1.91-4.533-5.245,1.812-7.394,8.126-13.446,8.394-.867.039-.872,1.391,0,1.352Z" transform="translate(4437.029 570.092)" fill="#fff"/>
    <path id="Path_795" data-name="Path 795" d="M454.808,1008.785c10.41,5.751,20.851,9.864,32.065,13.821,3.975,1.4,5.874-5.3,1.746-6.326-10.7-2.671-23.512-3.062-33.255-8.445-.622-.344-1.179.607-.556.95Z" transform="translate(4437.029 570.092)" fill="#fff"/>
    <path id="Path_796" data-name="Path 796" d="M466.219,976.693c12.342.94,24.717,2.933,37.114,1.868,12.644-1.086,24.5-3.759,37.153-.942,11.256,2.506,23.17,1.622,34.567.883,12.346-.8,24.325-.279,36.65.084,1.692.051,1.906-2.36.386-2.852-10.975-3.544-23.362-2.516-34.721-2.254-12.906.3-25.551.472-38.406-.888-12.161-1.289-23.577.1-35.629,1.633-12.391,1.572-25.038-1.619-37.194,1.878a.3.3,0,0,0,.08.59Z" transform="translate(4437.029 570.092)" fill="#fff"/>
    <path id="Path_797" data-name="Path 797" d="M547.828,970.454c.406-6.037,1.3-12.535.525-18.557a1.228,1.228,0,0,0-2.454,0c-.78,6.022.119,12.52.526,18.557a.7.7,0,0,0,1.4,0Z" transform="translate(4437.029 570.092)" fill="#fff"/>
    <path id="Path_798" data-name="Path 798" d="M548.535,950.543c4.361,2.31,8.9,3.27,12.211,6.776a87.989,87.989,0,0,0,14.432,12.443c1.442.963,3.472-.98,2.432-2.43-3.661-5.1-9.493-8.555-14.077-12.8-.918-.853-2.325-2.542-3.789-2.428-3.9.3-7.406-.751-11.092-1.835a.151.151,0,0,0-.117.274Z" transform="translate(4437.029 570.092)" fill="#fff"/>
    <path id="Path_799" data-name="Path 799" d="M500.466,880.07c10.415-5.574,18.108-14.937,28.246-20.926,1.946-1.15.157-4.218-1.77-3.027-10.291,6.362-15.968,17.875-26.678,23.609-.228.121-.025.468.2.344Z" transform="translate(4437.029 570.092)" fill="#fff"/>
    <path id="Path_800" data-name="Path 800" d="M546.939,858.174c3.125,6.148,5.138,12.852,8.9,18.686,1.948,3.023,6.724.285,4.842-2.83-3.57-5.9-8.748-10.772-11.882-16.943-.63-1.237-2.489-.147-1.861,1.087Z" transform="translate(4437.029 570.092)" fill="#fff"/>
    <path id="Path_801" data-name="Path 801" d="M524.115,831.419c-12.386-.223-28.7,1.679-34.159-12.1-1.894-4.781-2.182-10.041-4.244-14.776-2.534-5.812-7.159-9.82-12.793-12.573-3.431-1.679-6.453,3.42-3.007,5.144,7.922,3.969,11.9,8.208,13.754,16.861,1.274,5.951,2.892,10.967,6.692,15.808,7.492,9.545,24.26,5.58,34.017,3.556,1.108-.23.815-1.9-.26-1.916Z" transform="translate(4437.029 570.092)" fill="#fff"/>
    <path id="Path_802" data-name="Path 802" d="M543.607,833.685c7.012,5.649,16.159,10.071,24.44,13.524,2.1.874,3.912-2.393,2.216-3.808-7.154-5.966-17.622-6.611-25.713-10.935-.745-.4-1.656.643-.943,1.219Z" transform="translate(4437.029 570.092)" fill="#fff"/>
    <path id="Path_803" data-name="Path 803" d="M533.09,797.693c2.645,10,.271,19.471.925,29.505a1.979,1.979,0,0,0,3.956,0c.808-9.71.756-21.139-3.6-30.045-.359-.729-1.481-.211-1.282.54Z" transform="translate(4437.029 570.092)" fill="#fff"/>
    <path id="Path_804" data-name="Path 804" d="M478.744,839.842c1.269,3.071,3.762,6.346,7.258,6.853,1.506.221,1.574-2.05.259-1.918-1.527.156-3.365.266-4.608-.786a10.764,10.764,0,0,1-2.717-4.2c-.049-.12-.243-.068-.192.051Z" transform="translate(4437.029 570.092)" fill="#fff"/>
    <path id="Path_805" data-name="Path 805" d="M473.844,846.813c2.123,2.75,4.716,6.167,7.936,7.682,1.755.828,3.286-1.668,1.54-2.638-3.137-1.742-6.106-2.712-8.394-5.676-.485-.629-1.575-.007-1.082.632Z" transform="translate(4437.029 570.092)" fill="#fff"/>
    <path id="Path_806" data-name="Path 806" d="M473.607,854.375a22.469,22.469,0,0,0,8.814,7.717c1.987.958,3.729-1.932,1.744-2.984-3.252-1.722-6.576-3.076-9.142-5.825a.9.9,0,0,0-1.416,1.092Z" transform="translate(4437.029 570.092)" fill="#fff"/>
    <path id="Path_807" data-name="Path 807" d="M486.917,893.572c6.155.926,12.914,2.045,18.412,5.064,2.432,1.334,4.119-2.511,1.484-3.524-6.561-2.523-12.973-1.776-19.81-2.178-.362-.022-.451.584-.086.638Z" transform="translate(4437.029 570.092)" fill="#fff"/>
    <path id="Path_808" data-name="Path 808" d="M518.575,901.625a18.864,18.864,0,0,0,13.313,7.9c1.838.248,2.692-2.5.786-2.847-4.831-.884-9.781-2.086-13.471-5.538-.321-.3-.892.093-.628.483Z" transform="translate(4437.029 570.092)" fill="#fff"/>
    <path id="Path_809" data-name="Path 809" d="M543.444,907.938a33.239,33.239,0,0,1,16.3-5.053c3.208-.135,2.558-5.039-.587-4.327-6.249,1.412-11.994,2.893-17.256,6.742-1.553,1.138-.153,3.714,1.543,2.638Z" transform="translate(4437.029 570.092)" fill="#fff"/>
    <path id="Path_810" data-name="Path 810" d="M480.223,924.8c15.217,2.371,17.141,23.241,28.666,31.253,2.109,1.465,4.494-1.771,2.7-3.5-6.075-5.859-9.577-12.668-14.254-19.554-4.067-5.987-10.111-7.863-16.911-8.925-.474-.074-.678.652-.2.726Z" transform="translate(4437.029 570.092)" fill="#fff"/>
    <path id="Path_811" data-name="Path 811" d="M453.752,785.878c1.962-5.6,2.558-13.944-1.773-18.663-1.67-1.82-4.3.861-2.692,2.69,3.671,4.177,3.627,10.245,2.679,15.481a.927.927,0,0,0,1.786.492Z" transform="translate(4437.029 570.092)" fill="#fff"/>
    <path id="Path_812" data-name="Path 812" d="M422.11,765.591a5.221,5.221,0,0,0-.707-2.905c-.238-.354-.554-.622-.8-.972a2.254,2.254,0,0,0-1.613-.847c-1.617-.22-1.7,2.2-.28,2.065.369-.034.733-.057,1.1-.1.443-.047.562-.1.851.281a4.156,4.156,0,0,1,.59,2.476.426.426,0,0,0,.852,0Z" transform="translate(4437.029 570.092)" fill="#fff"/>
    <path id="Path_813" data-name="Path 813" d="M426.924,651.258c-1.426-2.127-4.333-5.469-7.188-5.417a7.7,7.7,0,0,0-7.454,6.381c-.586,2.576,3.218,3.641,3.96,1.092.548-1.887,1.456-3.716,3.4-4.478,3-1.175,5.387-.222,7.193,2.473.036.053.123,0,.087-.051Z" transform="translate(4437.029 570.092)" fill="#fff"/>
    <path id="Path_814" data-name="Path 814" d="M417.015,663.286c1.441,2.116,3.111,3.957,5.689,4.562,2.716.635,5.48-1.253,7.059-3.29,1.763-2.275-1.545-4.779-3.107-2.4-2.424,3.7-5.995,3.7-9.248.822-.2-.181-.562.056-.393.3Z" transform="translate(4437.029 570.092)" fill="#fff"/>
    <path id="Path_815" data-name="Path 815" d="M414.347,676.521c-.207-2.682-.552-5.363-2.2-7.616-1.38-1.891-4.406-.253-3.2,1.87,1.2,2.1,2.555,4.127,3.855,6.163.414.644,1.608.448,1.541-.417Z" transform="translate(4437.029 570.092)" fill="#fff"/>
    <path id="Path_816" data-name="Path 816" d="M503.268,726.438a15.537,15.537,0,0,0,.668-2.644,5.99,5.99,0,0,0-.731-3.1c-.96-1.921-3.672-4-5.809-4.013-2.565-.02-2.751,3.4-.573,4.228,1.528.58,2.947-.028,4.034,1.513a6.335,6.335,0,0,1,1.032,3.833c-.1.792,1.2.945,1.379.187Z" transform="translate(4437.029 570.092)" fill="#fff"/>
    <path id="Path_817" data-name="Path 817" d="M501.915,732.15a5.934,5.934,0,0,1-.62-1.763,5.173,5.173,0,0,0-.282-1.546.759.759,0,0,0-1.372.181c-.481,1.177,1.3,2.685,2.169,3.233a.077.077,0,0,0,.105-.1Z" transform="translate(4437.029 570.092)" fill="#fff"/>
    <path id="Path_818" data-name="Path 818" d="M513.182,727.925c1.8,1.089,4.205,1.161,6.2,1.916,2.589.981,4.985,2.375,7.57,3.307,3.215,1.163,5.443-3.294,3.217-5.523a14.452,14.452,0,0,0-9.111-3.656c-2.536-.141-6.251.384-8.09,2.264a1.089,1.089,0,0,0,.217,1.692Z" transform="translate(4437.029 570.092)" fill="#fff"/>
    <path id="Path_819" data-name="Path 819" d="M550.1,727.929a7.1,7.1,0,0,0-.716.053c.158.092.319.181.476.274-.793-1.811-2.867-1.239-4.25-.611a4.814,4.814,0,0,0-.551.312c-.118.078-.232.158-.339.245q-1.363,1,.279-.069c-1.963.6-2.473,2.236-2.659,4.057a3.287,3.287,0,0,0,2.429,3.186,3.361,3.361,0,0,0,3.73-1.518,4.273,4.273,0,0,0,.891-2.382,3.466,3.466,0,0,0-.478-1.751c.654,1.546.157,2.253.394,1.25.033-.135.075-.267.119-.4-.18.549.038-.032.1-.142a7.451,7.451,0,0,0,.623-1.786c-.178.135-.354.27-.53.406.159-.016.321-.026.483-.026a.55.55,0,0,0,0-1.1Z" transform="translate(4437.029 570.092)" fill="#fff"/>
    <path id="Path_820" data-name="Path 820" d="M517.712,755.941c.839-7.213,5.008-11.345,10.925-14.946,1.512-.92.53-3.53-1.235-2.929-7.279,2.492-13.863,10.227-10.2,18.015.131.277.486.1.513-.14Z" transform="translate(4437.029 570.092)" fill="#fff"/>
    <path id="Path_821" data-name="Path 821" d="M547.294,753.019c.6-3.98-.237-8.693-3.812-11.08-1.527-1.019-3.254,1.279-1.943,2.517,2.688,2.536,4.688,4.8,5.418,8.563.033.165.312.172.337,0Z" transform="translate(4437.029 570.092)" fill="#fff"/>
    <path id="Path_822" data-name="Path 822" d="M533.025,745.785a17.972,17.972,0,0,1,3.411.109,1.114,1.114,0,1,0,0-2.173,17.728,17.728,0,0,1-3.411.111.977.977,0,0,0,0,1.953Z" transform="translate(4437.029 570.092)" fill="#fff"/>
    <path id="Path_823" data-name="Path 823" d="M527.821,705.492q1.565.464,3.112.967c2.135.7,2.755,1.906,4.413,2.961a20.615,20.615,0,0,0,6.8,3.15c2.086.444,3.643-2.6,1.521-3.614a24.735,24.735,0,0,0-7.28-2.008c-1.473-.222-2.939.142-4.412-.185-1.389-.31-2.773-.915-4.143-1.32a.025.025,0,0,0-.013.049Z" transform="translate(4437.029 570.092)" fill="#fff"/>
    <path id="Path_824" data-name="Path 824" d="M524.117,754.507c4.512,0,9.152,2.423,13.522,3.536,2.76.7,3.764-3.252,1.159-4.2a17.162,17.162,0,0,0-7.149-.71c-2.6.2-4.9,1.278-7.532,1.275a.051.051,0,0,0,0,.1Z" transform="translate(4437.029 570.092)" fill="#fff"/>
    <path id="Path_825" data-name="Path 825" d="M508.765,764.229c7.309,4.38,14.459,9.69,22.178,13.3,2.555,1.2,5.651-2.066,3.216-4.167-6.795-5.863-16.489-7.726-24.622-10.967-1.084-.43-1.714,1.266-.772,1.831Z" transform="translate(4437.029 570.092)" fill="#fff"/>
    <path id="Path_826" data-name="Path 826" d="M582.914,825.715c-.18,5.683-2.269,11.032-4.074,16.366a51.8,51.8,0,0,0-2.613,17.149c-.037,6.309.263,12.6.039,18.915-.252,7.2-2.624,13.5-3.874,20.448a2.291,2.291,0,0,0,4.167,1.755c6.485-10.362,5.308-25.08,5.087-36.768-.142-7.675.206-14.677,2.628-22.012,1.839-5.566,2.628-10.457,1.245-16.206a1.332,1.332,0,0,0-2.6.353Z" transform="translate(4437.029 570.092)" fill="#fff"/>
    <path id="Path_827" data-name="Path 827" d="M561.883,1002.43c-8.224,5.717-3.158,17.215,5.256,19.816,2.646.815,5.143-2.994,2.825-4.853-4.5-3.621-9.437-6.3-5.821-12.7.771-1.364-.844-3.246-2.26-2.26Z" transform="translate(4437.029 570.092)" fill="#fff"/>
    <path id="Path_828" data-name="Path 828" d="M498.881,1086.057c9.409-.036,19.32-1.492,28.649-.127,8.776,1.284,17.683.648,26.51.491,9.5-.163,18.972-.2,28.463.417,10.409.683,20.336,3.062,30.571,4.752a3.234,3.234,0,0,0,1.717-6.231c-17.442-6.1-37.766-6.068-56.018-5.641A173.667,173.667,0,0,0,532.1,1082.1a188.012,188.012,0,0,1-33.221,2.859.551.551,0,0,0,0,1.1Z" transform="translate(4437.029 570.092)" fill="#fff"/>
    <path id="Path_829" data-name="Path 829" d="M523.563,1021.88c6.157,4.679,11.518,11.121,15.757,17.523a32.5,32.5,0,0,1,4.829,10.777c1.007,4.484-1.689,7.08-4.871,9.662-2.113,1.715.15,5.359,2.631,4.52,23.276-7.889-7.043-38.563-17.235-44.384-1.269-.725-2.211,1.067-1.111,1.9Z" transform="translate(4437.029 570.092)" fill="#fff"/>
    <path id="Path_830" data-name="Path 830" d="M629.2,984.108a166.527,166.527,0,0,1,2.053,17.524,1.979,1.979,0,0,0,3.955,0c.269-6.334-2.024-12.187-3.883-18.11a1.1,1.1,0,0,0-2.125.586Z" transform="translate(4437.029 570.092)" fill="#fff"/>
    <path id="Path_831" data-name="Path 831" d="M786.791,554.815c.913,4.974,1.918,10.539,6.6,13.428,1.738,1.072,3.865-1.569,2.216-2.871-3.81-3.01-7.676-5.472-8.619-10.611-.022-.126-.216-.072-.193.054Z" transform="translate(4437.029 570.092)" fill="#fff"/>
    <path id="Path_832" data-name="Path 832" d="M776.452,557.782a14.374,14.374,0,0,1,.958,3.183,28.484,28.484,0,0,0,1.031,2.674c.9,2.13,2,4.179,3.03,6.25,1.141,2.3,4.893.079,3.414-2-1.246-1.749-2.431-3.574-3.781-5.243a33,33,0,0,0-2.191-2.559,14.664,14.664,0,0,1-2.372-2.359c-.033-.056-.121-.005-.089.05Z" transform="translate(4437.029 570.092)" fill="#fff"/>
    <path id="Path_833" data-name="Path 833" d="M771.76,570.54c.393.757.522,1.642.851,2.438a11.06,11.06,0,0,0,1.238,2.057,18.879,18.879,0,0,0,2.911,3.243c1.953,1.746,4.249-1.622,2.094-2.713a17.9,17.9,0,0,1-3.127-1.981,13.415,13.415,0,0,1-3.4-3.373c-.192-.372-.754-.043-.562.329Z" transform="translate(4437.029 570.092)" fill="#fff"/>
    <path id="Path_834" data-name="Path 834" d="M763.765,577.993c3.125,1.322,4.706,4.763,5.091,7.97.306,2.552,4.073,1.822,3.343-.453a11.869,11.869,0,0,0-3.025-5.005,15.522,15.522,0,0,0-5.181-2.9c-.266-.11-.5.277-.228.39Z" transform="translate(4437.029 570.092)" fill="#fff"/>
    <path id="Path_835" data-name="Path 835" d="M649.51,673.551a7.849,7.849,0,0,0,.894,3.338,5.015,5.015,0,0,0,3.163,2.758c1.819.558,3.106-2.348,1.313-3.114a7.157,7.157,0,0,1-2.321-1.579c-.654-.653-1.071-1.581-1.841-2.095a.811.811,0,0,0-1.208.692Z" transform="translate(4437.029 570.092)" fill="#fff"/>
    <path id="Path_836" data-name="Path 836" d="M651.17,681.715c.6,6.207,2.933,13.8,8.47,17.4,2.119,1.375,4.029-1.579,2.55-3.3-1.861-2.174-3.875-3.96-5.47-6.4a57.176,57.176,0,0,1-4.382-8.021.63.63,0,0,0-1.168.316Z" transform="translate(4437.029 570.092)" fill="#fff"/>
    <path id="Path_837" data-name="Path 837" d="M758.823,622.476c5.719-5.459,12.277-12.291,20.643-12.542,2.191-.067,2.194-3.493,0-3.405-10.7.428-15.222,7.935-20.957,15.7-.14.189.155.394.314.243Z" transform="translate(4437.029 570.092)" fill="#fff"/>
    <path id="Path_838" data-name="Path 838" d="M758.869,637.855c12.586-5.25,25.3-12.141,39.376-9.925,2.436.383,3.538-3.251,1.039-3.767-14.462-2.992-29.245,4.682-40.956,12.41-.628.414-.228,1.6.541,1.282Z" transform="translate(4437.029 570.092)" fill="#fff"/>
    <path id="Path_839" data-name="Path 839" d="M798.358,647.521c4,1.725,2.9,5.528,2.681,8.958-.155,2.476,3.693,2.939,4.279.579a10.7,10.7,0,0,0-.785-7.2c-1.275-2.139-3.243-3.1-5.556-3.8-.853-.257-1.462,1.1-.619,1.466Z" transform="translate(4437.029 570.092)" fill="#fff"/>
    <path id="Path_840" data-name="Path 840" d="M800.6,637.568c7.287,6.8,8.725,17.957,4.251,26.6-1.418,2.744,2.679,5.163,4.151,2.426,5.567-10.337,1.784-23.51-7.736-29.9-.522-.352-1.122.441-.666.865Z" transform="translate(4437.029 570.092)" fill="#fff"/>
    <path id="Path_841" data-name="Path 841" d="M769.123,679.5c.724-2.166.6-4.446,1.192-6.66a49.684,49.684,0,0,1,2.5-7.313c.9-2.019-1.953-3.8-3.026-1.769-1.978,3.75-6.328,13.209-.739,15.774a.052.052,0,0,0,.074-.032Z" transform="translate(4437.029 570.092)" fill="#fff"/>
    <path id="Path_842" data-name="Path 842" d="M754.876,652.051c1.129,5.687,3.885,13.218,3.072,18.876-.741,5.165-2.088,9.594-1.263,14.846.225,1.444,2.726,1.108,2.558-.345-.725-6.184,1.138-11.944,1.524-18.058.4-6.3-4.554-9.607-5.7-15.372-.025-.127-.218-.073-.192.053Z" transform="translate(4437.029 570.092)" fill="#fff"/>
    <path id="Path_843" data-name="Path 843" d="M762.357,687.719c2.4,1.11,5.718,1.877,8.029.164a1.127,1.127,0,0,0-1.138-1.945,26.415,26.415,0,0,0-2.193,1.567c-1.5,1.047-3.036.817-4.624.083-.085-.039-.163.09-.074.131Z" transform="translate(4437.029 570.092)" fill="#fff"/>
    <path id="Path_844" data-name="Path 844" d="M767.589,695.968a20.437,20.437,0,0,0,2.227-.093,15.935,15.935,0,0,1,2.226-.4c.813.032.173-1.269-.282-.684-.849,1.082-2.951.874-4.171.875a.151.151,0,0,0,0,.3Z" transform="translate(4437.029 570.092)" fill="#fff"/>
    <path id="Path_845" data-name="Path 845" d="M768.556,698.348a17.957,17.957,0,0,1,2.162,5.5c.458,1.986.273,3.951.612,5.935.478,2.78,4.169,1.688,4.476-.6.637-4.744-2.785-9.154-6.428-11.655-.5-.344-1.133.327-.822.823Z" transform="translate(4437.029 570.092)" fill="#fff"/>
    <path id="Path_846" data-name="Path 846" d="M763.368,715.221c10.661-2.116,18.934-9.355,29.208-12.425,13.193-3.942,26.216-1.3,39.589-.319,2.462.179,3.047-3.979.586-4.33-12.21-1.747-24.6-3-36.752-.248-12.208,2.769-21.09,13.248-33.1,15.63-1.108.221-.638,1.911.466,1.692Z" transform="translate(4437.029 570.092)" fill="#fff"/>
    <path id="Path_847" data-name="Path 847" d="M775.587,776.587c10.149,3.75,20.456,5.609,31.284,4.109,2.973-.412,2.112-5-.685-5.066-10.139-.229-20.284.255-30.433-.275-.749-.037-.791,1-.166,1.232Z" transform="translate(4437.029 570.092)" fill="#fff"/>
    <path id="Path_848" data-name="Path 848" d="M789.047,802.945c5.094.857,9.937-.349,14.625-2.311,2.3-.964.811-4.311-1.314-3.112a44.956,44.956,0,0,1-13.311,4.941.252.252,0,0,0,0,.482Z" transform="translate(4437.029 570.092)" fill="#fff"/>
    <path id="Path_849" data-name="Path 849" d="M766.283,860.776c7.227-7.272,9.9-16.629,11.639-26.5.331-1.883-2.584-2.644-2.848-.787-1.364,9.58-3.4,19.011-9.186,26.989-.17.235.2.5.4.3Z" transform="translate(4437.029 570.092)" fill="#fff"/>
    <path id="Path_850" data-name="Path 850" d="M763.2,905.918c2.693-4.661,4.259-10.061,5.913-15.156,1.8-5.559,4.259-14.372,9.736-17.483,4.75-2.694,10.3-3.806,15.134-6.489,7.56-4.2,14.064-9.972,21.9-13.757,1.8-.869.227-3.552-1.567-2.68-7.792,3.783-14.512,9.288-21.868,13.8-4.972,3.053-11.67,3.947-16.2,7.55-4.445,3.536-6.6,9.829-8.494,14.973a80.623,80.623,0,0,0-4.69,19.2c-.008.08.1.1.139.041Z" transform="translate(4437.029 570.092)" fill="#fff"/>
    <path id="Path_851" data-name="Path 851" d="M842.056,798.377c12.243-1.967,24.165-12.855,29.848-23.523,1.32-2.477-2.442-4.678-3.761-2.2-5.25,9.85-16.07,20-26.566,23.983a.9.9,0,0,0,.479,1.737Z" transform="translate(4437.029 570.092)" fill="#fff"/>
    <path id="Path_852" data-name="Path 852" d="M748.244,948.356c2.782.931,4.293,1.954,7.227.691q-.746-.43-1.494-.857a34.405,34.405,0,0,0-.375,5.194,1.385,1.385,0,0,0,1,1.318,15.109,15.109,0,0,0,13.576-2.527c1.2-.892.051-2.929-1.186-2.033a12.359,12.359,0,0,1-11.662,1.922c.336.44.672.878,1,1.32a34.531,34.531,0,0,0-.374-5.194,1.008,1.008,0,0,0-1.495-.858c-1.762.9-4.23.474-6.178.681a.175.175,0,0,0-.046.343Z" transform="translate(4437.029 570.092)" fill="#fff"/>
    <path id="Path_853" data-name="Path 853" d="M769.615,932.6a118.393,118.393,0,0,0,5.926,40.345c3.674,11.647,9.125,26.549,18.657,34.733,1.822,1.56,5.141-.54,3.54-2.732-7.754-10.61-14.127-20.478-18.751-32.949-4.566-12.321-8.249-26.226-8.972-39.4a.2.2,0,0,0-.4,0Z" transform="translate(4437.029 570.092)" fill="#fff"/>
    <path id="Path_854" data-name="Path 854" d="M737.771,1064.1c3.514,4.133,7.843,10.76,14.259,7.875,1.4-.631.685-2.911-.772-2.845-2.244.1-4.046.334-6.227-.436a16.567,16.567,0,0,1-7.013-4.843c-.145-.171-.391.077-.247.249Z" transform="translate(4437.029 570.092)" fill="#fff"/>
    <path id="Path_855" data-name="Path 855" d="M749.773,1096.208c1.989-.056,3.5-1.113,5.087-2.2,1.658-1.137-.505-3.374-1.714-1.714a4.34,4.34,0,0,1-3.373,1.808,1.053,1.053,0,0,0,0,2.1Z" transform="translate(4437.029 570.092)" fill="#fff"/>
    <path id="Path_856" data-name="Path 856" d="M807.009,1041.26c4.606-1.446,7.637-.23,11.741,1.814,1.836.914,3.426-1.908,1.593-2.724-4.4-1.962-9.056-1.065-13.5.331-.367.116-.21.7.162.579Z" transform="translate(4437.029 570.092)" fill="#fff"/>
    <path id="Path_857" data-name="Path 857" d="M831.587,1070.45c1.872-3.274,4.035-6.862,5.044-10.511a1.559,1.559,0,0,0-2.838-1.2c-1.812,3.386-2.644,7.344-4.127,10.9-.467,1.121,1.345,1.82,1.921.811Z" transform="translate(4437.029 570.092)" fill="#fff"/>
    <path id="Path_858" data-name="Path 858" d="M826.263,953.782c1.836,8.029,3.444,16.1,6.05,23.927.983,2.94,5.19,1.222,3.937-1.659-3.218-7.394-4.743-15.379-7.091-23.066a1.5,1.5,0,0,0-2.9.8Z" transform="translate(4437.029 570.092)" fill="#fff"/>
    <path id="Path_859" data-name="Path 859" d="M805.336,916.656c8.839,1.947,17.755,3.963,26.828,4.335,2.254.094,2.267-3.54,0-3.5a206.187,206.187,0,0,1-26.721-1.618c-.453-.052-.541.69-.107.786Z" transform="translate(4437.029 570.092)" fill="#fff"/>
    <path id="Path_860" data-name="Path 860" d="M875.2,1203.224c2.531,5.579,7.4,10.133,13.944,9.057,2.422-.4,1.825-4.314-.571-4.227-2.418.087-4.4.314-6.737-.556a8.847,8.847,0,0,1-5.124-5.158c-.467-1.027-1.977-.138-1.512.884Z" transform="translate(4437.029 570.092)" fill="#fff"/>
    <path id="Path_861" data-name="Path 861" d="M860.48,1194.215a7.338,7.338,0,0,0,4.342,1.012,1.353,1.353,0,0,0,0-2.705,10.219,10.219,0,0,1-3.375-.595c-1.338-.545-2.172,1.6-.967,2.288Z" transform="translate(4437.029 570.092)" fill="#fff"/>
    <path id="Path_862" data-name="Path 862" d="M724.509,1211.69c.417,3.288,3.409,5.06,6.216,6.24,2.268.956,3.405-3.287.492-3.639-2.43-.294-4.536-1.516-6.668-2.624a.029.029,0,0,0-.04.023Z" transform="translate(4437.029 570.092)" fill="#fff"/>
    <path id="Path_863" data-name="Path 863" d="M812.7,1225.653a6.976,6.976,0,0,0,1.836.352,12.664,12.664,0,0,0,2.031-.206,7.464,7.464,0,0,0,4.062-1.895c.988-1.056.029-3.07-1.487-2.551a20.419,20.419,0,0,0-3.235,1.764,15.434,15.434,0,0,1-3.207,1.33.63.63,0,0,0,0,1.206Z" transform="translate(4437.029 570.092)" fill="#fff"/>
    <path id="Path_864" data-name="Path 864" d="M824.741,1226.27a23.6,23.6,0,0,1,3.54.15.643.643,0,1,0,0-1.254,23.759,23.759,0,0,1-3.54.152.476.476,0,0,0,0,.952Z" transform="translate(4437.029 570.092)" fill="#fff"/>
    <path id="Path_865" data-name="Path 865" d="M831.9,1227.731a2.188,2.188,0,0,0,2.218-.395.917.917,0,1,0-1.268-1.268c.247-.328-.133.131-.2.2a4.879,4.879,0,0,1-.75.555.531.531,0,0,0,0,.909Z" transform="translate(4437.029 570.092)" fill="#fff"/>
    <path id="Path_866" data-name="Path 866" d="M383.679,1220.017c.736.583,1.265,1.279,2.064,1.8a9.044,9.044,0,0,0,3.568,1.214c2.728.439,2.8-3.714.466-3.444-1.023.121-2.019.045-3.042.069a11.8,11.8,0,0,1-2.836-.017c-.2-.045-.409.226-.22.38Z" transform="translate(4437.029 570.092)" fill="#fff"/>
    <path id="Path_867" data-name="Path 867" d="M378.644,1213.942c10.417.1,21.311,3.068,31.471,5.3,2.115.466,3-2.817.892-3.235-10.967-2.173-21.271-2.015-32.363-2.118a.025.025,0,1,0,0,.049Z" transform="translate(4437.029 570.092)" fill="#fff"/>
  </g>
</svg>
