<svg xmlns="http://www.w3.org/2000/svg" width="50.132" height="75.012" viewBox="0 0 50.132 75.012">
  <g id="Group_29" data-name="Group 29" transform="translate(-153 -112.988)">
    <path id="Path_924" data-name="Path 924" d="M190,167l-7-6h-4a6,6,0,0,1,0-12h5c9.941,0,18,4.059,18,14a24,24,0,0,1-48,0V143" fill="none" stroke="#1f1010" stroke-linecap="round" stroke-linejoin="round" stroke-miterlimit="10" stroke-width="2"/>
    <path id="Path_925" data-name="Path 925" d="M159.5,136a5.268,5.268,0,0,0-5.5,5v10a5.525,5.525,0,0,0,11,0V141A5.268,5.268,0,0,0,159.5,136Z" fill="none" stroke="#1f1010" stroke-linecap="round" stroke-linejoin="round" stroke-miterlimit="10" stroke-width="2"/>
    <path id="Path_926" data-name="Path 926" d="M176,138v11.81a5.985,5.985,0,0,0-3,5.19,1.828,1.828,0,0,0,.02.33,5.048,5.048,0,0,1-2.52.67,5.767,5.767,0,0,1-5.5-6V138a5.521,5.521,0,1,1,11,0Z" fill="none" stroke="#1f1010" stroke-linecap="round" stroke-linejoin="round" stroke-miterlimit="10" stroke-width="2"/>
    <path id="Path_927" data-name="Path 927" d="M202,120.64l-6.52,30.86a23.36,23.36,0,0,0-10.72-2.49l6.48-30.65A5.5,5.5,0,0,1,202,120.64Z" fill="none" stroke="#1f1010" stroke-linecap="round" stroke-linejoin="round" stroke-miterlimit="10" stroke-width="2"/>
    <path id="Path_928" data-name="Path 928" d="M185.36,149.03c-.45-.02-.9-.03-1.36-.03h-5a5.884,5.884,0,0,0-3,.81V138a5.77,5.77,0,0,0-5.48-6l-2.4-11.36a5.5,5.5,0,0,1,10.76-2.28Z" fill="none" stroke="#1f1010" stroke-linecap="round" stroke-linejoin="round" stroke-miterlimit="10" stroke-width="2"/>
  </g>
</svg>
