<svg xmlns="http://www.w3.org/2000/svg" width="20.187" height="29.399" viewBox="0 0 20.187 29.399">
  <g id="Group_20" data-name="Group 20" transform="translate(0)">
    <path id="Path_877" data-name="Path 877" d="M101.327,77.161a2.767,2.767,0,0,0,2.762-2.762.809.809,0,0,0-1.618,0,1.146,1.146,0,1,1-2.292,0,.809.809,0,0,0-1.618,0A2.767,2.767,0,0,0,101.327,77.161Z" transform="translate(-98.56 -59.647)" fill="#1f1010"/>
    <path id="Path_878" data-name="Path 878" d="M56.669,37.63l2.541-12.136a.809.809,0,0,0,0-.329,2.764,2.764,0,0,0-5.448-.742l-2.133,7.63L49.7,24.21a2.764,2.764,0,0,0-5.483.677.791.791,0,0,0,.013.086L45.4,30.1l1.58-.356-1.154-5.07A1.146,1.146,0,0,1,48.1,24.44a.787.787,0,0,0,.019.1l2.673,10.866a.811.811,0,0,0,1.567.024l2.967-10.615a1.148,1.148,0,1,1,2.23.545.809.809,0,0,0-.024.229l-2.449,11.7Z" transform="translate(-39.039 -21.891)" fill="#1f1010"/>
    <path id="Path_879" data-name="Path 879" d="M86.781,58.611a4.76,4.76,0,0,0,.809-.127l.086-.013-.31-1.588-.094.019c-.27.054-.44.086-.51.094a1.146,1.146,0,0,1-1.127-1.143V50.965a1.146,1.146,0,0,1,1.144-1.146,1.047,1.047,0,0,1,.27.03,1.143,1.143,0,0,1,.89,1.117v5.046h1.618V50.965a2.751,2.751,0,0,0-2.12-2.7,2.64,2.64,0,0,0-.645-.078,2.767,2.767,0,0,0-2.762,2.764v4.895a2.767,2.767,0,0,0,2.751,2.762Z" transform="translate(-80.109 -41.098)" fill="#1f1010"/>
    <path id="Path_880" data-name="Path 880" d="M54.915,75.345H55.5a9.212,9.212,0,0,0,9.412-8.978v-.324a6.408,6.408,0,0,0-2.678-5.178,7.994,7.994,0,0,0-4.792-1.483h-.154a12.425,12.425,0,0,0-3.722.574L53.477,60l-.086.046-.173.076a2.578,2.578,0,0,0-1.694,2.389,2.767,2.767,0,0,0,2.7,2.808l2.112.165,1.993,1.888a.809.809,0,1,0,1.1-1.168q-1.1-1.033-2.2-2.074a.809.809,0,0,0-.5-.221l-2.427-.189h-.049a1.146,1.146,0,0,1-1.127-1.165c0-.448.2-.693.747-.944l.162-.07.062-.046.07-.038A10.839,10.839,0,0,1,57.3,61h.148a6.392,6.392,0,0,1,3.832,1.157,4.8,4.8,0,0,1,2.02,3.875v.321c0,4.4-4.029,7.36-7.794,7.36h-.4a9.92,9.92,0,0,1-7.012-2.495,4.713,4.713,0,0,1-1.548-3.366V57.594a1.146,1.146,0,1,1,2.292,0,.809.809,0,1,0,1.618,0,2.764,2.764,0,1,0-5.529,0V67.867a6.3,6.3,0,0,0,2.031,4.517A11.487,11.487,0,0,0,54.915,75.345Z" transform="translate(-44.92 -45.947)" fill="#1f1010"/>
  </g>
</svg>
