<svg xmlns="http://www.w3.org/2000/svg" width="78.24" height="65" viewBox="0 0 78.24 65">
  <g id="Group_27" data-name="Group 27" transform="translate(-230.76 -124)">
    <path id="Path_912" data-name="Path 912" d="M298.711,166.82c-3.872,1.745-12.125,3.333-21.048,4.315L274.25,172.5S308,177,308,173C308,170.679,302.951,168.359,298.711,166.82Z" fill="none" stroke="#1f1010" stroke-linecap="round" stroke-linejoin="round" stroke-miterlimit="10" stroke-width="2"/>
    <path id="Path_913" data-name="Path 913" d="M259.945,172.153C261.363,176.552,264.181,184,267,184c2.953,0,5.359-8.169,6.417-12.449C268.779,171.95,264.122,172.173,259.945,172.153Z" fill="none" stroke="#1f1010" stroke-linecap="round" stroke-linejoin="round" stroke-miterlimit="10" stroke-width="2"/>
    <line id="Line_4" data-name="Line 4" x2="11" transform="translate(259 188)" fill="none" stroke="#1f1010" stroke-linecap="round" stroke-miterlimit="10" stroke-width="2"/>
    <line id="Line_5" data-name="Line 5" y1="4" transform="translate(267 184)" fill="none" stroke="#1f1010" stroke-linecap="round" stroke-miterlimit="10" stroke-width="2"/>
    <circle id="Ellipse_6" data-name="Ellipse 6" cx="2" cy="2" r="2" transform="translate(244 128)" fill="#1f1010"/>
    <path id="Path_914" data-name="Path 914" d="M278,154a114.664,114.664,0,0,1-10.466-5.229A15,15,0,1,0,255,172c16,1,45-3,46-7C301.511,162.957,287.834,158.318,278,154Z" fill="none" stroke="#1f1010" stroke-linecap="round" stroke-linejoin="round" stroke-miterlimit="10" stroke-width="2"/>
    <path id="Path_915" data-name="Path 915" d="M240.736,134.264A12.266,12.266,0,0,1,240,131a5.964,5.964,0,0,1,.582-2.564L240,128l-7,3,7,4Z" fill="none" stroke="#1f1010" stroke-linecap="round" stroke-linejoin="round" stroke-miterlimit="10" stroke-width="2"/>
    <path id="Path_916" data-name="Path 916" d="M240.4,153.62a14.975,14.975,0,0,1,19.638-10.745C256.776,139.31,252,133.636,252,131a6,6,0,0,0-12,0,15.421,15.421,0,0,0,1,4S237.089,149.678,240.4,153.62Z" fill="none" stroke="#1f1010" stroke-linecap="round" stroke-linejoin="round" stroke-miterlimit="10" stroke-width="2"/>
  </g>
</svg>
