<svg id="Group_26" data-name="Group 26" xmlns="http://www.w3.org/2000/svg" width="35.05" height="29.83" viewBox="0 0 35.05 29.83">
  <path id="Path_911" data-name="Path 911" d="M8.953,962.363a3.849,3.849,0,0,1,3.335,1.669c1.654,2.763,2.674,6.268,4.775,7.99,1.082,1.064,5.127,3.281,7.455,4.317,3.216,1.422,6.864,2.807,10.053,4.1a1.153,1.153,0,0,1,.691.852.564.564,0,0,1-.293.553,11.171,11.171,0,0,0-1.276.748l3.9,1.911a1.1,1.1,0,0,1,.433,1.094.964.964,0,0,1-.983.714l-15.46-.725a29.5,29.5,0,0,1-1.088,3.3,5.119,5.119,0,0,1-.726,1.266,1.672,1.672,0,0,1-.7.507l.012.794h.971a.369.369,0,1,1,0,.737h-4.12a.369.369,0,1,1,0-.737h2.4l-.012-.794a1.659,1.659,0,0,1-.691-.507,5.119,5.119,0,0,1-.726-1.266,30.049,30.049,0,0,1-1.112-3.373C12.173,985,9.461,984,7.513,980.967c-2.265-3.713-2.28-8.474-1.229-13.873L3.3,966.772a.387.387,0,0,1-.152-.679l2.5-1.439a3.5,3.5,0,0,1,3.3-2.291Zm0,.737A2.873,2.873,0,0,0,6.3,965a4.913,4.913,0,0,1,.784,1.692.527.527,0,0,1,0,.161,26.331,26.331,0,0,0-.653,8.552c.541-1.587,2.568-2.956,4.235-3.544a9.211,9.211,0,0,1,5.161-.012c-1.855-2.036-2.786-5.124-4.19-7.46a3.2,3.2,0,0,0-2.68-1.289Zm.375,1.474a.737.737,0,1,1-.749.737A.743.743,0,0,1,9.327,964.573Zm-3.616.91-1.205.691,1.674.184a4.556,4.556,0,0,0-.468-.875Zm5.2,7.08c-1.856.635-3.937,2.152-4.2,4.283a9,9,0,0,0,1.451,3.742c1.788,2.814,5.019,3.887,7.958,4.248a61.923,61.923,0,0,0,17.8-3.293c.184-.094.541-.2.562-.276-.007-.073-.092-.1-.222-.161-3.172-1.284-6.817-2.657-10.053-4.087a34.961,34.961,0,0,1-7.151-4.007,9.086,9.086,0,0,0-6.144-.449Zm21.6,10.223a63.307,63.307,0,0,1-9.3,2.141c4.619.208,9.238.442,13.857.645a.218.218,0,0,0,.222-.127.268.268,0,0,0-.117-.334C35.69,984.234,32.984,983.026,32.512,982.786Zm-11.587,2.452c-1.576.189-3.06.3-4.354.322A27.82,27.82,0,0,0,17.59,988.6c.254.595.535,1.342,1.1,1.393.551-.058.889-.887,1.112-1.393a30.4,30.4,0,0,0,1.124-3.362Z" transform="translate(-3 -962.362)"/>
</svg>
