<svg xmlns="http://www.w3.org/2000/svg" width="177.366" height="247.762" viewBox="0 0 177.366 247.762">
  <g id="Group_4" data-name="Group 4" transform="translate(-99 -31.238)">
    <path id="Path_17" data-name="Path 17" d="M250.5,184.5c2-29-3.471-66.948-5-83-2-21-49.65-24.937-65-29-30.816-8.157-63-1-68,30-4.109,25.478-13,33.986-13,71,0,54,25,105,52,105C202.5,278.5,246.89,236.843,250.5,184.5Z" fill="none" stroke="#000" stroke-miterlimit="10" stroke-width="1"/>
    <path id="Path_18" data-name="Path 18" d="M250.5,186.5c3.141-15.705,11.306-32,16-32,6,0,6.952,15.258,4,31-3,16-15.342,30.582-20,30C242.5,214.5,246.5,206.5,250.5,186.5Z" fill="none" stroke="#000" stroke-miterlimit="10" stroke-width="1"/>
    <path id="Path_19" data-name="Path 19" d="M261.5,185c1.037-5.705-2-10.5-4-10.5-2.485,0-6,4-7,11-.82,5.741.515,10,3,10S260.5,190.5,261.5,185Z" fill="none" stroke="#000" stroke-miterlimit="10" stroke-width="1"/>
    <path id="Path_20" data-name="Path 20" d="M267.5,177.5c2.009-8.037,1.369-12.331-1-14-2.41-1.7-11.271,3.9-13,12s-5,19,0,20C255.4,195.879,265.5,185.5,267.5,177.5Z" fill="none" stroke="#000" stroke-miterlimit="10" stroke-width="1"/>
    <path id="Path_21" data-name="Path 21" d="M250.5,184.5c1.666-7.08,7-22,14-29,4.426-4.426,14.8-75.359,10-84-10-18-41.729-29.495-80-38-27-6-43.772,4.275-58,14-16.53,11.3-21.313,35.115-24,55-3.456,25.575-13,33.986-13,71,0,54,25,105,52,105,34.694,0,64.719-15.755,82-45C246.5,211.5,246.5,201.5,250.5,184.5Z" fill="none" stroke="#000" stroke-miterlimit="10" stroke-width="1"/>
    <path id="Path_22" data-name="Path 22" d="M193.5,231.5c-.938,3.751-35.716-4-44-4s-34.573.842-35-3c-1-9,17.148-16.25,29-19,3.951-.917,4.929,3,7,3,1.762,0,6.379-3.006,10-2C178.5,211.5,195.5,223.5,193.5,231.5Z" fill="none" stroke="#000" stroke-miterlimit="10" stroke-width="1"/>
    <path id="Path_23" data-name="Path 23" d="M193.5,231.5c-.938,3.751-35.716-4-44-4s-34.573.842-35-3a74.84,74.84,0,0,1,17,6c7.5,4,8,9,18,10s11.524-3.129,20-5C180.948,232.971,193.5,231.5,193.5,231.5Z" fill="none" stroke="#000" stroke-miterlimit="10" stroke-width="1"/>
    <path id="Path_24" data-name="Path 24" d="M224.5,154.5c-6,3-16-7-30-7-10.77,0-26,.761-26-2s16.251-7.672,27-7C211.5,139.5,226.97,153.265,224.5,154.5Z" fill="none" stroke="#000" stroke-miterlimit="10" stroke-width="1"/>
    <path id="Path_25" data-name="Path 25" d="M102.5,141.5c1-8,11.335-10,21-10s24,8,24,12-11-3-22-3a84.634,84.634,0,0,0-12.885.527C107.32,141.826,102.274,143.306,102.5,141.5Z" fill="none" stroke="#000" stroke-miterlimit="10" stroke-width="1"/>
    <path id="Path_26" data-name="Path 26" d="M145.5,157.5c0,3.038-11,7-22,7-5.247,0-12-6.962-12-10s5-10,15-10C136.55,144.5,145.5,154.462,145.5,157.5Z" fill="none" stroke="#000" stroke-miterlimit="10" stroke-width="1"/>
    <path id="Path_27" data-name="Path 27" d="M142.5,156.5c0,.8-2.658.3-5.931.594-3.478.315-7.651,1.406-10.069,1.406-2.48,0-6-2.139-9-3-2.681-.769-5-.218-5-1,0-1.657,8-5,14-5S142.5,154.843,142.5,156.5Z" fill="none" stroke="#000" stroke-miterlimit="10" stroke-width="1"/>
    <ellipse id="Ellipse_1" data-name="Ellipse 1" cx="5" cy="4" rx="5" ry="4" transform="translate(121.5 149.5)" fill="none" stroke="#000" stroke-miterlimit="10" stroke-width="1"/>
    <path id="Path_28" data-name="Path 28" d="M218.5,165.5c0,2.761-16.335,8-26,8s-18-9.239-18-12,4.835-9,14.5-9S218.5,162.739,218.5,165.5Z" fill="none" stroke="#000" stroke-miterlimit="10" stroke-width="1"/>
    <path id="Path_29" data-name="Path 29" d="M211.5,164.5c0,.806-1.658-.409-4.744-.612-3.254-.214-8.1.585-14.256,1.612-2.514.419-5.2-3-8-4-2.962-1.06-7-.148-7-1,0-1.657,9.253-4,14.5-4S211.5,162.843,211.5,164.5Z" fill="none" stroke="#000" stroke-miterlimit="10" stroke-width="1"/>
    <path id="Path_30" data-name="Path 30" d="M198.5,161a5.028,5.028,0,0,1-10,0c0-1.243.1-3.686,1-4.5s2.619,0,4,0A4.77,4.77,0,0,1,198.5,161Z" fill="none" stroke="#000" stroke-miterlimit="10" stroke-width="1"/>
    <path id="Path_31" data-name="Path 31" d="M147.5,174.5c1-9,5-29,6-31,.48-.96,1.312-3.811,5-4,4-.205,7.9,1.388,9,4,1.879,4.442-6,25.519-6,32,0,5.645,15,12,15,20,0,2.995-1.865,9.246-7,10-2.454.36-5.288-4.1-8-5-3.622-1.2-8.852,1-9,1-.643,0-9.708,2.478-11-7C141.128,191.769,146.5,183.5,147.5,174.5Z" fill="none" stroke="#000" stroke-miterlimit="10" stroke-width="1"/>
    <path id="Path_32" data-name="Path 32" d="M147.5,174.5c1-9,5-29,6-31,.48-.96,1.312-3.811,5-4,4-.205-15.308-1.649-13,0,7,5,0,32-1,37s-12,15-9,24c.285.855,1.37-1.574,5-1,4.387.694,4.97,5.838,10,5,2.2-.367,3.461-1.33,4.371-1.136,1.569.335,2.1,2.136,4.629,2.136h10c-2.454.36-5.288-4.1-8-5-3.622-1.2-8.852,1-9,1-.643,0-9.708,2.478-11-7C141.128,191.769,146.5,183.5,147.5,174.5Z" fill="none" stroke="#000" stroke-miterlimit="10" stroke-width="1"/>
    <path id="Path_33" data-name="Path 33" d="M144.5,202.5c0,.828-2,1-4,1s-5-2.172-5-3,4-1,5-1S144.5,201.672,144.5,202.5Z" fill="none" stroke="#000" stroke-miterlimit="10" stroke-width="1"/>
    <circle id="Ellipse_2" data-name="Ellipse 2" cx="1" cy="1" r="1" transform="translate(202.5 209.5)" fill="none" stroke="#000" stroke-miterlimit="10" stroke-width="1"/>
  </g>
</svg>
